<svg xmlns="http://www.w3.org/2000/svg" viewBox="0 0 770 10000"><defs><style>.cls-1{fill:#f0f0f3;}.cls-2{fill:#61dafb;}.cls-3{fill:#764abc;}.cls-4{fill:#ffa712;}.cls-4,.cls-5{fill-rule:evenodd;}.cls-5{fill:#ffa50e;}.cls-6{fill:#f6820c;}.cls-7{fill:#fcca3f;}.cls-8{fill:#8cc84b;}</style></defs><title>Asset 5</title><g id="Layer_2" data-name="Layer 2"><g id="Layer_1-2" data-name="Layer 1"><rect class="cls-1" width="770" height="1250"/><rect class="cls-1" y="1250" width="770" height="1250"/><rect class="cls-1" y="2500" width="770" height="1250"/><rect class="cls-1" y="3750" width="770" height="1250"/><rect class="cls-1" y="5000" width="770" height="1250"/><rect class="cls-1" y="6250" width="770" height="1250"/><rect class="cls-1" y="7500" width="770" height="1250"/><rect class="cls-1" y="8750" width="770" height="1250"/><path class="cls-2" d="M635.05,1250.05c0-33.12-41.48-64.51-105.07-84,14.67-64.82,8.15-116.39-20.59-132.9-6.63-3.87-14.37-5.7-22.83-5.7v22.72a23.63,23.63,0,0,1,11.62,2.65c13.86,8,19.87,38.22,15.18,77.15-1.12,9.58-2.95,19.67-5.19,30a493.45,493.45,0,0,0-64.72-11.11,496.61,496.61,0,0,0-42.4-51c33.23-30.88,64.41-47.8,85.61-47.8v-22.73c-28,0-64.72,20-101.81,54.63-37.1-34.45-73.79-54.22-101.82-54.22v22.73c21.1,0,52.39,16.82,85.61,47.49a481.1,481.1,0,0,0-42.09,50.86,475.83,475.83,0,0,0-64.82,11.21c-2.34-10.19-4.07-20.08-5.3-29.56-4.79-38.93,1.12-69.2,14.88-77.25,3.06-1.83,7-2.65,11.72-2.65v-22.73a45.47,45.47,0,0,0-23,5.71c-28.64,16.51-35.06,68-20.28,132.59-63.39,19.57-104.67,50.86-104.67,83.88s41.48,64.51,105.08,84c-14.68,64.82-8.16,116.39,20.58,132.9,6.63,3.87,14.37,5.71,22.93,5.71,28,0,64.72-20,101.82-54.63,37.1,34.45,73.79,54.22,101.81,54.22a45.51,45.51,0,0,0,23-5.71c28.63-16.51,35.05-68,20.28-132.59,63.18-19.47,104.46-50.86,104.46-83.88Zm-132.69-68c-3.77,13.15-8.46,26.7-13.76,40.26-4.18-8.15-8.56-16.31-13.35-24.46s-9.69-16.1-14.68-23.85c14.47,2.14,28.44,4.79,41.79,8Zm-46.68,108.54c-7.95,13.76-16.1,26.81-24.56,38.94-15.19,1.32-30.58,2-46.07,2s-30.78-.71-45.86-1.93c-8.46-12.13-16.72-25.07-24.67-38.73-7.74-13.35-14.77-26.91-21.19-40.56,6.32-13.66,13.45-27.32,21.09-40.67,7.95-13.76,16.11-26.8,24.56-38.93,15.19-1.32,30.58-2,46.07-2s30.78.72,45.86,1.94c8.46,12.13,16.72,25.07,24.67,38.73,7.74,13.35,14.77,26.9,21.2,40.56-6.43,13.66-13.46,27.31-21.1,40.66Zm32.92,1.9a245.39,245.39,0,0,1,14.06,28c-13.35,2.25-27.41,4.15-42,5.62,5-5.41,10-11,14.68-16.65s9.07-11.3,13.25-16.92Zm-103.35,93.6a424.58,424.58,0,0,1-28.33-32.61c9.17.4,18.55.71,28,.71s19.06-.2,28.33-.71A398.28,398.28,0,0,1,385.25,1386.11Zm-75.82-60c-14.47-2.14-28.44-4.79-41.79-8,3.77-13.15,8.46-26.7,13.76-40.26,4.18,8.16,8.56,16.31,13.35,24.46S304.44,1318.33,309.43,1326.08ZM384.74,1114a420.8,420.8,0,0,1,28.34,32.62c-9.17-.41-18.55-.72-28-.72s-19.06.21-28.33.72A398.69,398.69,0,0,1,384.74,1114Zm-75.41,60c-5,7.85-10,15.9-14.68,24.16s-9.07,16.3-13.25,24.46c-5.5-13.66-10.19-27.32-14.06-40.57,13.35-3.16,27.41-5.91,42-8Zm-92.24,127.6c-36.08-15.39-59.41-35.57-59.41-51.57s23.33-36.28,59.41-51.57c8.77-3.77,18.35-7.13,28.23-10.29a491.07,491.07,0,0,0,22.93,62.06A483.72,483.72,0,0,0,245.63,1312c-10.09-3.16-19.67-6.63-28.54-10.4Zm54.83,145.64c-13.86-8-19.87-38.22-15.18-77.15,1.12-9.58,2.95-19.67,5.2-30a491.34,491.34,0,0,0,64.71,11.11,496.61,496.61,0,0,0,42.4,51c-33.22,30.88-64.41,47.8-85.61,47.8a24.34,24.34,0,0,1-11.52-2.75Zm241.75-77.66c4.79,38.93-1.12,69.2-14.88,77.25-3.06,1.84-7,2.65-11.72,2.65-21.1,0-52.39-16.82-85.61-47.49a479.88,479.88,0,0,0,42.09-50.86,475.83,475.83,0,0,0,64.82-11.21A285.9,285.9,0,0,1,513.67,1369.6Zm39.24-68c-8.77,3.77-18.35,7.13-28.23,10.29a489.63,489.63,0,0,0-22.94-62.06,482.75,482.75,0,0,0,22.63-61.76c10.09,3.16,19.67,6.62,28.64,10.39,36.08,15.39,59.42,35.57,59.42,51.57s-23.45,36.28-59.52,51.57Z"/><ellipse class="cls-2" cx="378.5" cy="1250.05" rx="40.13" ry="46.58"/><path class="cls-3" d="M481.55,3795.18a35.74,35.74,0,0,0-3.82-71.27h-1.27a35.6,35.6,0,0,0-34.36,36.9,36.56,36.56,0,0,0,10.18,23.55c-21.63,42.63-54.72,73.81-104.35,99.9-33.72,17.81-68.72,24.18-103.71,19.72-28.63-3.82-50.9-16.54-64.9-37.54-20.36-31.18-22.27-64.9-5.09-98.63,12.09-24.18,31.18-42,43.27-50.9-2.55-8.27-6.37-22.27-8.28-32.45-92.26,66.81-82.71,157.16-54.71,199.8,21,31.81,63.62,51.54,110.71,51.54a156.44,156.44,0,0,0,38.17-4.46c81.45-15.9,143.16-64.26,178.16-136.16Zm112-78.9c-48.35-56.64-119.62-87.81-201.06-87.81H382.29a35,35,0,0,0-31.18-19.09h-1.27a35.64,35.64,0,0,0,1.27,71.26h1.27A35.83,35.83,0,0,0,383.56,3659H395c48.35,0,94.16,14,135.52,41.36,31.82,21,54.72,48.36,67.45,81.44,10.81,26.73,10.18,52.81-1.28,75.09-17.81,33.72-47.72,52.17-87.17,52.17-25.45,0-49.62-7.63-62.35-13.36-7,6.36-19.73,16.54-28.63,22.91,27.36,12.72,55.35,19.72,82.08,19.72,61.08,0,106.25-33.72,123.43-67.45,18.46-36.9,17.18-100.53-30.54-154.61ZM270.31,3806a35.73,35.73,0,0,0,35.63,34.36h1.27a35.64,35.64,0,0,0-1.27-71.26h-1.27a10.93,10.93,0,0,0-4.46.63c-26.08-43.27-36.9-90.35-33.08-141.26,2.54-38.17,15.27-71.26,37.54-98.62,18.45-23.55,54.08-35,78.26-35.63,67.44-1.28,96.07,82.71,98,116.44,8.27,1.91,22.27,6.36,31.82,9.54-7.64-103.07-71.27-156.52-132.35-156.52-57.26,0-110.07,41.36-131.07,102.44-29.27,81.44-10.18,159.71,25.45,221.43-3.18,4.45-5.09,11.45-4.45,18.45Z"/><path id="a" class="cls-4" d="M153.87,8957l3.16-6.15,195.3-370.58-86.79-164.1c-7.21-13.54-25.53-10.09-27.89,5.08Z"/><path id="c" class="cls-5" d="M415.64,8698l63-64.5-63-119.93c-6-11.38-20.51-12.58-26.43-1.16l-34.8,67-1,3.43Z"/><path class="cls-6" d="M151.41,8961.46l1.89-1.9,6.87-2.79,252.56-251.62,3.2-8.71-63-120.05Z"/><path class="cls-7" d="M651.41,8959.82l-64.78-398.94c-2-12.48-14.86-17.64-23.79-8.69l-408.9,408.49,224.77,125.63a47.07,47.07,0,0,0,45.87,0l226.83-126.5Z"/><path class="cls-8" d="M362.54,5980.38a46.22,46.22,0,0,1,45.11,0q103,58.21,206,116.38c12.91,7.27,21.55,21.64,21.42,36.53v233.45c.1,15.5-9.4,30.22-23,37.33Q509.41,6462,406.78,6519.88c-13.94,8-32.09,7.36-45.6-1.26q-30.78-17.85-61.6-35.62c-4.19-2.5-8.92-4.49-11.88-8.56,2.62-3.52,7.3-4,11.1-5.5,8.56-2.73,16.43-7.1,24.3-11.34,2-1.37,4.42-.84,6.33.38C347,6468,364.37,6478.39,382,6488.35c3.76,2.17,7.56-.71,10.77-2.5q100.76-56.94,201.58-113.75a6.67,6.67,0,0,0,3.66-6.56q.07-115.53,0-231.06a7.21,7.21,0,0,0-4.3-7.2Q491.39,6069.67,389.12,6012a7.11,7.11,0,0,0-8,0q-102.29,57.65-204.55,115.35a7.14,7.14,0,0,0-4.33,7.17q0,115.53,0,231.07a6.54,6.54,0,0,0,3.71,6.48q27.3,15.48,54.63,30.85c10.26,5.52,22.86,8.8,34.16,4.57a25.89,25.89,0,0,0,16.78-24.34c.09-76.57-.05-153.14.07-229.69a5.76,5.76,0,0,1,6.28-5.89c8.74-.06,17.5-.12,26.24,0,3.65-.08,6.16,3.58,5.71,7,0,77.05.1,154.1-.06,231.15,0,20.54-8.41,42.88-27.4,52.93-23.4,12.12-52.32,9.55-75.44-2.08-20-10-39.11-21.77-58.77-32.47-13.66-7.07-23.1-21.85-23-37.33V6133.29c-.14-15.19,8.84-29.83,22.16-37Q259.9,6038.36,362.54,5980.38Z"/><path class="cls-8" d="M422.25,6142.1c29.84-1.92,61.8-1.14,88.66,13.57,20.79,11.27,32.32,34.91,32.69,58-.58,3.11-3.84,4.83-6.82,4.62-8.66,0-17.32.12-26-.06-3.67.14-5.81-3.25-6.27-6.49-2.49-11.06-8.51-22-18.92-27.34-16-8-34.49-7.59-51.91-7.42-12.71.67-26.38,1.77-37.15,9.25-8.27,5.66-10.78,17.09-7.83,26.3,2.78,6.61,10.41,8.75,16.66,10.71,36,9.41,74.08,8.47,109.37,20.85,14.6,5.05,28.89,14.86,33.89,30.16,6.54,20.5,3.68,45-10.91,61.46-11.82,13.54-29.05,20.91-46.23,24.91-22.86,5.1-46.58,5.23-69.79,3-21.82-2.48-44.53-8.22-61.38-23.09-14.41-12.51-21.45-32-20.75-50.81.17-3.18,3.33-5.4,6.37-5.14,8.73-.07,17.45-.09,26.17,0,3.48-.25,6.06,2.76,6.24,6,1.61,10.53,5.57,21.59,14.75,27.83,17.73,11.44,40,10.65,60.26,11,16.81-.74,35.69-1,49.41-12.08,7.24-6.34,9.38-16.95,7.43-26.07-2.12-7.7-10.18-11.29-17.1-13.64-35.51-11.23-74.05-7.15-109.22-19.86-14.27-5-28.08-14.58-33.56-29.25-7.66-20.75-4.15-46.43,12-62.33,15.71-15.82,38.39-21.91,60-24.09Z"/></g></g></svg>