<svg xmlns="http://www.w3.org/2000/svg" viewBox="0 0 770 3000"><defs><style>.cls-1{fill:#f0f0f3;}.cls-2{fill:#61dafb;}.cls-3{fill:#764abc;}.cls-4{fill:#ffa712;}.cls-4,.cls-5{fill-rule:evenodd;}.cls-5{fill:#ffa50e;}.cls-6{fill:#f6820c;}.cls-7{fill:#fcca3f;}.cls-8{fill:#8cc84b;}</style></defs><title>Asset 3</title><g id="Layer_2" data-name="Layer 2"><g id="Layer_1-2" data-name="Layer 1"><rect class="cls-1" width="770" height="3000"/><path class="cls-2" d="M535,554.77c0-19.87-24.89-38.7-63-50.38,8.8-38.89,4.89-69.84-12.36-79.74a26.72,26.72,0,0,0-13.69-3.43v13.64a14.17,14.17,0,0,1,7,1.59c8.31,4.77,11.92,22.93,9.11,46.29-.67,5.75-1.78,11.8-3.12,18a296,296,0,0,0-38.83-6.67,299.52,299.52,0,0,0-25.44-30.57C414.57,445,433.28,434.8,446,434.8V421.16c-16.82,0-38.83,12-61.09,32.78-22.26-20.67-44.27-32.53-61.09-32.53V435c12.66,0,31.43,10.09,51.37,28.5a287.7,287.7,0,0,0-25.26,30.51A285.18,285.18,0,0,0,311,500.78c-1.41-6.12-2.45-12-3.18-17.73-2.87-23.36.67-41.52,8.93-46.36a13.6,13.6,0,0,1,7-1.58V421.47A27.3,27.3,0,0,0,310,424.89c-17.18,9.91-21,40.79-12.17,79.56C259.8,516.19,235,535,235,554.77s24.89,38.71,63,50.39c-8.81,38.89-4.9,69.83,12.35,79.74a26.9,26.9,0,0,0,13.76,3.43c16.81,0,38.83-12,61.09-32.78,22.25,20.67,44.27,32.53,61.08,32.53a27.28,27.28,0,0,0,13.82-3.42c17.19-9.91,21-40.79,12.17-79.56C510.26,593.42,535,574.59,535,554.77ZM455.41,514c-2.26,7.89-5.07,16-8.25,24.15-2.51-4.89-5.14-9.78-8-14.67s-5.81-9.67-8.81-14.31C439,510.44,447.4,512,455.41,514Zm-28,65.12c-4.77,8.26-9.66,16.08-14.74,23.36-9.11.8-18.34,1.22-27.64,1.22s-18.47-.42-27.52-1.16c-5.07-7.27-10-15-14.8-23.23-4.64-8-8.86-16.15-12.71-24.34,3.79-8.2,8.07-16.39,12.65-24.4,4.77-8.26,9.67-16.08,14.74-23.36,9.11-.79,18.35-1.22,27.64-1.22s18.47.43,27.52,1.16c5.07,7.28,10,15,14.8,23.24q7,12,12.72,24.33c-3.86,8.2-8.08,16.39-12.66,24.4Zm19.75,1.14A148.78,148.78,0,0,1,455.6,597c-8,1.35-16.45,2.49-25.2,3.37,3-3.24,6-6.57,8.81-10s5.44-6.79,8-10.16Zm-62,56.16a253.45,253.45,0,0,1-17-19.57c5.51.25,11.13.43,16.82.43s11.43-.12,17-.43A236.29,236.29,0,0,1,385.15,636.41Zm-45.49-36c-8.69-1.28-17.06-2.87-25.07-4.83,2.26-7.89,5.07-16,8.25-24.15,2.51,4.89,5.14,9.78,8,14.67S336.66,595.75,339.66,600.39Zm45.19-127.25a253.45,253.45,0,0,1,17,19.57c-5.51-.25-11.13-.43-16.82-.43s-11.43.12-17,.43A236.29,236.29,0,0,1,384.85,473.14Zm-45.25,36c-3,4.71-6,9.54-8.81,14.49s-5.44,9.78-8,14.68c-3.3-8.2-6.11-16.39-8.44-24.34,8-1.9,16.45-3.55,25.2-4.83Zm-55.34,76.56c-21.65-9.24-35.65-21.34-35.65-31s14-21.76,35.65-30.94c5.25-2.26,11-4.28,16.93-6.17A295.75,295.75,0,0,0,315,554.9,289.91,289.91,0,0,0,301.38,592c-6.06-1.89-11.8-4-17.12-6.23Zm32.89,87.38c-8.31-4.77-11.92-22.93-9.11-46.29.68-5.75,1.78-11.8,3.12-18A296,296,0,0,0,350,615.5a299.52,299.52,0,0,0,25.44,30.57c-19.93,18.53-38.65,28.68-51.37,28.68a14.6,14.6,0,0,1-6.91-1.65ZM462.2,626.5c2.88,23.36-.67,41.52-8.93,46.35a13.51,13.51,0,0,1-7,1.59c-12.66,0-31.43-10.09-51.36-28.49a288.88,288.88,0,0,0,25.25-30.51A285.18,285.18,0,0,0,459,608.71,169.52,169.52,0,0,1,462.2,626.5Zm23.54-40.78c-5.26,2.26-11,4.28-16.93,6.17a295.75,295.75,0,0,0-13.76-37.24,289.91,289.91,0,0,0,13.57-37c6.06,1.89,11.8,4,17.18,6.23,21.65,9.24,35.66,21.34,35.66,30.94s-14.07,21.77-35.72,31Z"/><ellipse class="cls-2" cx="381.1" cy="554.77" rx="24.08" ry="27.95"/><path class="cls-3" d="M439,1198.7a21.44,21.44,0,0,0-2.29-42.76h-.76a21.37,21.37,0,0,0-20.62,22.15,21.88,21.88,0,0,0,6.11,14.12c-13,25.58-32.83,44.29-62.61,59.94-20.23,10.69-41.23,14.51-62.23,11.84-17.18-2.29-30.54-9.93-38.94-22.53-12.21-18.71-13.36-38.94-3-59.17,7.25-14.51,18.71-25.2,26-30.55-1.53-5-3.82-13.36-5-19.47-55.36,40.09-49.63,94.3-32.83,119.88,12.59,19.09,38.17,30.93,66.42,30.93a93.84,93.84,0,0,0,22.91-2.68c48.86-9.54,85.89-38.56,106.89-81.7Zm67.19-47.34c-29-34-71.77-52.68-120.64-52.68h-6.1a21,21,0,0,0-18.71-11.46H360a21.39,21.39,0,0,0,.76,42.76h.76a21.49,21.49,0,0,0,18.71-13h6.87c29,0,56.5,8.4,81.32,24.82,19.09,12.6,32.83,29,40.46,48.86,6.49,16,6.11,31.69-.76,45.06-10.69,20.23-28.63,31.3-52.3,31.3a97.52,97.52,0,0,1-37.41-8c-4.2,3.82-11.84,9.93-17.18,13.75,16.41,7.63,33.21,11.83,49.24,11.83,36.65,0,63.76-20.23,74.07-40.47,11.07-22.14,10.3-60.32-18.33-92.77Zm-193.93,53.83a21.44,21.44,0,0,0,21.37,20.62h.77a21.39,21.39,0,0,0-.77-42.76h-.76a6.51,6.51,0,0,0-2.67.38c-15.65-26-22.14-54.21-19.85-84.75,1.52-22.91,9.16-42.76,22.52-59.18,11.07-14.13,32.45-21,47-21.38,40.46-.76,57.64,49.63,58.79,69.87,5,1.14,13.36,3.81,19.09,5.72-4.58-61.84-42.76-93.91-79.41-93.91-34.36,0-66,24.81-78.64,61.46-17.56,48.87-6.11,95.83,15.27,132.86a17.08,17.08,0,0,0-2.67,11.07Z"/><path id="a" class="cls-4" d="M253.9,1938l1.88-3.67,116.71-221.45-51.86-98.05c-4.31-8.09-15.26-6-16.67,3Z"/><path id="c" class="cls-5" d="M410.32,1783.28,448,1744.73l-37.63-71.66c-3.57-6.8-12.26-7.51-15.79-.69l-20.8,40.06-.62,2Z"/><path class="cls-6" d="M252.43,1940.71l1.13-1.14,4.1-1.67,150.92-150.35,1.91-5.21-37.65-71.74Z"/><path class="cls-7" d="M551.2,1939.72l-38.7-238.38c-1.21-7.46-8.88-10.55-14.22-5.2l-244.34,244.1,134.31,75.07a28.14,28.14,0,0,0,27.41,0l135.54-75.6Z"/><path class="cls-8" d="M388.28,2281.63a27.68,27.68,0,0,1,27.06,0q61.82,34.92,123.62,69.82a25.47,25.47,0,0,1,12.86,21.92v140.07c0,9.3-5.64,18.13-13.82,22.4q-61.61,34.72-123.17,69.49a27,27,0,0,1-27.37-.76q-18.46-10.71-37-21.37c-2.51-1.5-5.35-2.7-7.13-5.14,1.57-2.12,4.38-2.38,6.66-3.3,5.14-1.64,9.86-4.26,14.59-6.81a3.41,3.41,0,0,1,3.79.23c10.53,6,21,12.25,31.53,18.23,2.25,1.3,4.53-.43,6.46-1.5q60.45-34.17,121-68.25a4,4,0,0,0,2.19-3.94q0-69.31,0-138.64a4.35,4.35,0,0,0-2.58-4.32q-61.39-34.56-122.75-69.18a4.26,4.26,0,0,0-4.82,0q-61.38,34.59-122.74,69.21a4.28,4.28,0,0,0-2.59,4.3v138.64a3.91,3.91,0,0,0,2.22,3.89c10.92,6.2,21.85,12.34,32.78,18.51,6.16,3.32,13.71,5.29,20.5,2.75a15.55,15.55,0,0,0,10.06-14.61c.06-45.94,0-91.88,0-137.82a3.47,3.47,0,0,1,3.77-3.53c5.25,0,10.5-.07,15.75,0a3.62,3.62,0,0,1,3.42,4.2c0,46.23.06,92.46,0,138.69,0,12.32-5,25.72-16.44,31.75-14,7.27-31.4,5.73-45.27-1.24-12-6-23.46-13.07-35.26-19.49a25.67,25.67,0,0,1-13.8-22.4V2373.37a25.48,25.48,0,0,1,13.29-22.2Q326.7,2316.42,388.28,2281.63Z"/><path class="cls-8" d="M424.1,2378.66c17.91-1.16,37.08-.69,53.2,8.14,12.48,6.76,19.39,20.95,19.61,34.81a3.76,3.76,0,0,1-4.08,2.77c-5.2,0-10.4.07-15.59,0-2.21.08-3.49-1.95-3.77-3.9-1.49-6.63-5.11-13.2-11.35-16.4-9.58-4.8-20.69-4.56-31.14-4.46-7.63.41-15.83,1.07-22.3,5.55-5,3.4-6.47,10.26-4.7,15.79,1.67,4,6.25,5.24,10,6.42,21.58,5.65,44.45,5.09,65.62,12.51,8.77,3,17.34,8.92,20.34,18.1,3.93,12.3,2.21,27-6.55,36.87-7.09,8.13-17.43,12.55-27.74,15-13.71,3.06-27.94,3.14-41.87,1.78-13.09-1.49-26.72-4.93-36.83-13.86-8.64-7.5-12.87-19.2-12.45-30.49a3.51,3.51,0,0,1,3.83-3.08c5.23,0,10.46-.05,15.7,0a3.67,3.67,0,0,1,3.74,3.63c1,6.32,3.34,12.95,8.85,16.7,10.64,6.86,24,6.39,36.16,6.58,10.09-.45,21.41-.58,29.64-7.25,4.35-3.8,5.63-10.17,4.46-15.64-1.27-4.62-6.11-6.78-10.26-8.18-21.3-6.74-44.43-4.3-65.53-11.92-8.56-3-16.85-8.75-20.14-17.55-4.59-12.46-2.49-27.86,7.18-37.4,9.43-9.49,23-13.15,36-14.45Z"/></g></g></svg>