<svg xmlns="http://www.w3.org/2000/svg" viewBox="0 0 770 3000"><defs><style>.cls-1{fill:#f0f0f3;}.cls-2{fill:#61dafb;}.cls-3{fill:#764abc;}.cls-4{fill:#ffa712;}.cls-4,.cls-5{fill-rule:evenodd;}.cls-5{fill:#ffa50e;}.cls-6{fill:#f6820c;}.cls-7{fill:#fcca3f;}.cls-8{fill:#8cc84b;}</style></defs><title>Asset 4</title><g id="Layer_2" data-name="Layer 2"><g id="Layer_1-2" data-name="Layer 1"><rect class="cls-1" width="770" height="3000"/><path class="cls-2" d="M635,554.8c0-33.13-41.48-64.52-105.08-84,14.68-64.82,8.16-116.39-20.58-132.9a44.73,44.73,0,0,0-22.83-5.71v22.73a23.63,23.63,0,0,1,11.62,2.65c13.86,8,19.87,38.22,15.18,77.15-1.12,9.58-3,19.67-5.19,30a495.12,495.12,0,0,0-64.72-11.11,498.77,498.77,0,0,0-42.4-51c33.23-30.88,64.41-47.79,85.61-47.79V332.11c-28,0-64.72,20-101.81,54.63C347.73,352.29,311,332.52,283,332.52v22.72c21.1,0,52.39,16.82,85.61,47.5a482,482,0,0,0-42.09,50.85,477.37,477.37,0,0,0-64.82,11.21c-2.34-10.19-4.07-20.07-5.3-29.55-4.79-38.93,1.12-69.2,14.88-77.25,3.06-1.84,7-2.65,11.72-2.65V332.62a45.37,45.37,0,0,0-23,5.71c-28.64,16.51-35.06,68-20.28,132.59C176.31,490.49,135,521.77,135,554.8s41.48,64.51,105.08,84c-14.68,64.82-8.16,116.39,20.58,132.9,6.63,3.88,14.37,5.71,22.93,5.71,28,0,64.72-20,101.82-54.63C422.54,757.2,459.23,777,487.25,777a45.41,45.41,0,0,0,23-5.71c28.63-16.51,35.05-68,20.28-132.59C593.75,619.21,635,587.82,635,554.8Zm-132.69-68c-3.78,13.14-8.46,26.7-13.76,40.25-4.18-8.15-8.56-16.3-13.35-24.46s-9.69-16.1-14.68-23.84c14.47,2.14,28.43,4.79,41.79,8.05ZM455.66,595.36c-8,13.76-16.1,26.8-24.56,38.93-15.19,1.32-30.58,2-46.07,2s-30.78-.72-45.86-1.94c-8.46-12.13-16.72-25.07-24.67-38.73q-11.61-20-21.19-40.56c6.31-13.66,13.45-27.31,21.09-40.66,8-13.76,16.11-26.81,24.56-38.94,15.19-1.32,30.58-2,46.07-2s30.78.71,45.86,1.93c8.46,12.13,16.72,25.07,24.67,38.73,7.74,13.35,14.77,26.91,21.19,40.56-6.42,13.66-13.45,27.32-21.09,40.67Zm32.92,1.89a245.5,245.5,0,0,1,14.06,28c-13.35,2.24-27.41,4.14-42,5.61,5-5.4,10-11,14.68-16.64s9.07-11.31,13.25-16.93Zm-103.35,93.6a422.69,422.69,0,0,1-28.33-32.61c9.17.41,18.55.71,28,.71s19.06-.2,28.33-.71A396.61,396.61,0,0,1,385.23,690.85Zm-75.82-60c-14.47-2.14-28.44-4.79-41.79-8.05,3.77-13.14,8.46-26.7,13.76-40.25,4.18,8.15,8.56,16.3,13.35,24.46S304.41,623.08,309.41,630.82Zm75.31-212.08a420.59,420.59,0,0,1,28.34,32.61c-9.18-.41-18.55-.71-28-.71s-19.06.2-28.33.71A398.49,398.49,0,0,1,384.72,418.74Zm-75.41,60c-5,7.84-10,15.89-14.68,24.15s-9.07,16.31-13.25,24.46c-5.5-13.66-10.19-27.31-14.06-40.56,13.35-3.16,27.41-5.91,42-8.05ZM217.07,606.36C181,591,157.66,570.8,157.66,554.8s23.33-36.29,59.41-51.57c8.77-3.78,18.35-7.14,28.23-10.3A490.62,490.62,0,0,0,268.23,555a484.16,484.16,0,0,0-22.62,61.76c-10.09-3.16-19.67-6.62-28.54-10.4ZM271.9,752c-13.86-8-19.87-38.22-15.18-77.15,1.12-9.58,2.95-19.67,5.2-30A494.67,494.67,0,0,0,326.63,656,498.77,498.77,0,0,0,369,707c-33.23,30.88-64.41,47.79-85.61,47.79A24.22,24.22,0,0,1,271.9,752Zm241.75-77.66c4.79,38.93-1.12,69.2-14.88,77.25-3.06,1.84-7,2.65-11.72,2.65-21.1,0-52.39-16.81-85.61-47.49a480.75,480.75,0,0,0,42.09-50.85,477.37,477.37,0,0,0,64.82-11.21A285.73,285.73,0,0,1,513.65,674.34Zm39.24-68c-8.77,3.78-18.35,7.14-28.23,10.3a489.19,489.19,0,0,0-22.94-62.07,482.75,482.75,0,0,0,22.63-61.76C534.44,496,544,499.45,553,503.23c36.08,15.38,59.41,35.56,59.41,51.57S589,591.08,552.89,606.36Z"/><ellipse class="cls-2" cx="378.48" cy="554.8" rx="40.13" ry="46.58"/><path class="cls-3" d="M477.55,1236.37a35.74,35.74,0,0,0-3.82-71.26h-1.27A35.59,35.59,0,0,0,438.1,1202a36.51,36.51,0,0,0,10.18,23.54c-21.63,42.64-54.72,73.81-104.35,99.9-33.72,17.82-68.71,24.18-103.71,19.73-28.63-3.82-50.9-16.54-64.9-37.54-20.36-31.18-22.27-64.91-5.09-98.63,12.09-24.18,31.18-42,43.27-50.9-2.55-8.28-6.37-22.27-8.27-32.45-92.26,66.81-82.72,157.16-54.72,199.79,21,31.82,63.62,51.54,110.71,51.54a156.43,156.43,0,0,0,38.17-4.45c81.45-15.91,143.17-64.27,178.16-136.17Zm112-78.9c-48.35-56.63-119.61-87.81-201.06-87.81H378.29a35,35,0,0,0-31.18-19.09h-1.27a35.65,35.65,0,0,0,1.27,71.27h1.28a35.85,35.85,0,0,0,31.17-21.64H391c48.35,0,94.16,14,135.52,41.36,31.82,21,54.72,48.36,67.45,81.45,10.81,26.72,10.18,52.81-1.28,75.08-17.81,33.73-47.71,52.18-87.16,52.18-25.46,0-49.63-7.64-62.36-13.37-7,6.37-19.72,16.55-28.63,22.91,27.36,12.73,55.36,19.73,82.08,19.73,61.08,0,106.26-33.73,123.44-67.45,18.45-36.91,17.17-100.53-30.55-154.62Zm-323.22,89.72a35.73,35.73,0,0,0,35.63,34.36h1.27a35.65,35.65,0,0,0-1.27-71.27h-1.27a10.78,10.78,0,0,0-4.46.64c-26.08-43.27-36.9-90.35-33.08-141.26,2.54-38.18,15.27-71.26,37.54-98.63,18.45-23.54,54.08-35,78.26-35.63,67.44-1.27,96.07,82.72,98,116.44,8.27,1.91,22.27,6.37,31.82,9.55-7.64-103.08-71.27-156.53-132.35-156.53-57.26,0-110.07,41.36-131.07,102.45-29.27,81.44-10.18,159.7,25.45,221.42-3.18,4.46-5.09,11.46-4.45,18.46Z"/><path id="a" class="cls-4" d="M221,1965.54l2.3-4.49L366,1690.38l-63.39-119.85c-5.27-9.9-18.65-7.37-20.37,3.7Z"/><path id="c" class="cls-5" d="M412.21,1776.37l46-47.11-46-87.59c-4.37-8.32-15-9.19-19.3-.85l-25.42,49-.76,2.51Z"/><path class="cls-6" d="M219.22,1968.8l1.38-1.39,5-2,184.46-183.78,2.34-6.36-46-87.69Z"/><path class="cls-7" d="M584.41,1967.59,537.1,1676.21c-1.48-9.11-10.85-12.88-17.38-6.35L221.07,1968.23,385.24,2060a34.35,34.35,0,0,0,33.5,0l165.67-92.4Z"/><path class="cls-8" d="M379.26,2173.78a46.18,46.18,0,0,1,45.1,0q103,58.2,206,116.37c12.92,7.28,21.56,21.65,21.42,36.53v233.46c.1,15.5-9.39,30.21-23,37.32q-102.66,57.89-205.29,115.82a44.9,44.9,0,0,1-45.61-1.27q-30.78-17.84-61.6-35.61c-4.19-2.5-8.92-4.49-11.88-8.56,2.62-3.53,7.3-4,11.1-5.51,8.57-2.72,16.44-7.1,24.3-11.34,2-1.36,4.42-.84,6.33.38,17.55,10.06,34.94,20.42,52.55,30.38,3.75,2.17,7.56-.71,10.77-2.5Q510.22,2622.31,611,2565.5a6.66,6.66,0,0,0,3.66-6.57q.07-115.51,0-231a7.23,7.23,0,0,0-4.3-7.2q-102.31-57.63-204.59-115.31a7.08,7.08,0,0,0-8,0Q295.5,2263,193.24,2320.71a7.14,7.14,0,0,0-4.33,7.17q0,115.51,0,231.06a6.53,6.53,0,0,0,3.71,6.48q27.3,15.49,54.64,30.86c10.26,5.52,22.85,8.8,34.15,4.57a25.92,25.92,0,0,0,16.78-24.35c.1-76.56-.05-153.14.07-229.69a5.77,5.77,0,0,1,6.28-5.89c8.75-.06,17.5-.11,26.25,0,3.65-.09,6.16,3.57,5.71,7,0,77.05.09,154.1-.06,231.15,0,20.53-8.41,42.87-27.41,52.92-23.4,12.12-52.32,9.55-75.44-2.07-20-10-39.11-21.78-58.76-32.48-13.66-7.07-23.11-21.84-23-37.33V2326.68c-.15-15.19,8.84-29.82,22.15-37Q276.63,2231.76,379.26,2173.78Z"/><path class="cls-8" d="M439,2335.5c29.85-1.92,61.8-1.14,88.66,13.56,20.8,11.27,32.32,34.92,32.69,58-.58,3.12-3.84,4.84-6.81,4.62-8.66,0-17.32.12-26,0-3.68.14-5.81-3.25-6.27-6.5-2.49-11.05-8.52-22-18.93-27.33-16-8-34.49-7.6-51.9-7.43-12.72.68-26.39,1.78-37.16,9.25-8.27,5.67-10.78,17.1-7.83,26.31,2.78,6.61,10.42,8.74,16.66,10.71,36,9.41,74.09,8.47,109.37,20.85,14.61,5,28.9,14.86,33.9,30.15,6.54,20.5,3.67,45-10.91,61.46-11.83,13.54-29.06,20.91-46.24,24.92-22.85,5.09-46.57,5.22-69.78,3-21.83-2.49-44.54-8.22-61.39-23.09-14.41-12.51-21.44-32-20.75-50.82.17-3.18,3.34-5.39,6.38-5.13,8.72-.07,17.44-.09,26.16,0,3.48-.25,6.07,2.76,6.25,6.05,1.6,10.53,5.56,21.58,14.75,27.83,17.72,11.43,40,10.65,60.26,11,16.81-.75,35.68-1,49.4-12.09,7.24-6.33,9.39-16.94,7.43-26.06-2.12-7.7-10.18-11.29-17.09-13.64-35.51-11.23-74.06-7.16-109.22-19.86-14.28-5.05-28.08-14.58-33.57-29.25-7.65-20.76-4.15-46.44,12-62.34,15.71-15.81,38.39-21.9,59.95-24.08Z"/></g></g></svg>