<svg xmlns="http://www.w3.org/2000/svg" viewBox="0 0 770 3000"><defs><style>.cls-1{fill:#f0f0f3;}.cls-2{fill:#61dafb;}.cls-3{fill:#764abc;}.cls-4{fill:#ffa712;}.cls-4,.cls-5{fill-rule:evenodd;}.cls-5{fill:#ffa50e;}.cls-6{fill:#f6820c;}.cls-7{fill:#fcca3f;}.cls-8{fill:#8cc84b;}</style></defs><title>Asset 1</title><g id="Layer_2" data-name="Layer 2"><g id="Layer_1-2" data-name="Layer 1"><rect class="cls-1" width="770" height="3000"/><path class="cls-2" d="M535,372.24c0-19.87-24.89-38.7-63.05-50.38,8.81-38.9,4.9-69.84-12.35-79.74a26.74,26.74,0,0,0-13.7-3.43v13.64a14.18,14.18,0,0,1,7,1.59c8.31,4.77,11.92,22.93,9.11,46.29-.68,5.75-1.78,11.8-3.12,18A296,296,0,0,0,420,311.52,299.52,299.52,0,0,0,394.6,281c19.94-18.53,38.65-28.68,51.37-28.68V238.63c-16.82,0-38.83,12-61.09,32.78-22.26-20.67-44.27-32.53-61.09-32.53v13.63c12.66,0,31.43,10.09,51.36,28.5a288.88,288.88,0,0,0-25.25,30.51A285.18,285.18,0,0,0,311,318.25c-1.41-6.12-2.45-12.05-3.18-17.74-2.87-23.35.67-41.52,8.93-46.35a13.6,13.6,0,0,1,7-1.59V238.94A27.3,27.3,0,0,0,310,242.36c-17.18,9.91-21,40.79-12.17,79.56-38,11.74-62.8,30.51-62.8,50.32s24.89,38.71,63.05,50.39c-8.81,38.89-4.9,69.83,12.35,79.74a26.9,26.9,0,0,0,13.76,3.42c16.81,0,38.83-12,61.08-32.77,22.26,20.67,44.28,32.53,61.09,32.53a27.18,27.18,0,0,0,13.82-3.43c17.19-9.9,21-40.78,12.17-79.55C510.23,410.89,535,392.06,535,372.24Zm-79.62-40.78c-2.26,7.88-5.07,16-8.25,24.15-2.51-4.89-5.14-9.78-8-14.68s-5.81-9.66-8.81-14.3c8.69,1.28,17.06,2.87,25.07,4.83Zm-28,65.12c-4.77,8.26-9.67,16.08-14.74,23.36-9.11.79-18.35,1.22-27.64,1.22s-18.47-.43-27.52-1.16c-5.07-7.28-10-15-14.8-23.24q-7-12-12.71-24.33c3.79-8.2,8.07-16.39,12.65-24.4,4.77-8.26,9.66-16.08,14.74-23.36,9.11-.8,18.35-1.22,27.64-1.22s18.47.42,27.52,1.16c5.07,7.27,10,15,14.8,23.23q7,12,12.71,24.34c-3.85,8.2-8.07,16.39-12.65,24.4Zm19.75,1.14a147.94,147.94,0,0,1,8.44,16.77c-8,1.35-16.45,2.49-25.2,3.37,3-3.24,6-6.57,8.81-10s5.44-6.78,7.95-10.15Zm-62,56.16a255.34,255.34,0,0,1-17-19.57c5.51.24,11.13.43,16.82.43s11.43-.12,17-.43A239.89,239.89,0,0,1,385.12,453.88Zm-45.49-36c-8.69-1.28-17.06-2.87-25.07-4.83,2.26-7.89,5.07-16,8.25-24.15,2.51,4.89,5.14,9.78,8,14.67S336.63,413.21,339.63,417.86Zm45.19-127.25a253.45,253.45,0,0,1,17,19.57c-5.51-.25-11.13-.43-16.82-.43s-11.44.12-17,.43A236.29,236.29,0,0,1,384.82,290.61Zm-45.25,36c-3,4.7-6,9.53-8.81,14.49s-5.44,9.78-7.95,14.67c-3.3-8.19-6.11-16.38-8.44-24.33,8-1.9,16.45-3.55,25.2-4.83Zm-55.34,76.55c-21.65-9.23-35.65-21.34-35.65-30.94s14-21.77,35.65-30.94c5.25-2.26,11-4.28,16.93-6.17a295.75,295.75,0,0,0,13.76,37.24,289.36,289.36,0,0,0-13.57,37.05,181.33,181.33,0,0,1-17.12-6.24Zm32.89,87.39c-8.31-4.77-11.92-22.93-9.11-46.29.68-5.75,1.78-11.8,3.12-18A296.06,296.06,0,0,0,350,433a298.59,298.59,0,0,0,25.44,30.58c-19.94,18.53-38.65,28.68-51.37,28.68a14.6,14.6,0,0,1-6.91-1.65ZM462.17,444c2.87,23.36-.67,41.52-8.93,46.35a13.6,13.6,0,0,1-7,1.59c-12.66,0-31.43-10.09-51.36-28.49A288,288,0,0,0,420.1,432.9,285.22,285.22,0,0,0,459,426.18,169.06,169.06,0,0,1,462.17,444Zm23.54-40.79c-5.26,2.27-11,4.29-16.94,6.18A294.09,294.09,0,0,0,455,372.12a289.47,289.47,0,0,0,13.57-37.06c6.06,1.9,11.8,4,17.18,6.24,21.65,9.24,35.65,21.34,35.65,30.94S507.36,394,485.71,403.18Z"/><ellipse class="cls-2" cx="381.07" cy="372.24" rx="24.08" ry="27.95"/><path class="cls-3" d="M442.75,1181.5a21.44,21.44,0,0,0-2.29-42.76h-.76a21.37,21.37,0,0,0-20.62,22.15,22,22,0,0,0,6.11,14.12c-13,25.58-32.83,44.29-62.61,59.94-20.23,10.69-41.23,14.51-62.22,11.84-17.18-2.29-30.55-9.93-38.95-22.53-12.21-18.71-13.36-38.94-3.05-59.17,7.26-14.51,18.71-25.2,26-30.55-1.53-5-3.82-13.36-5-19.47-55.36,40.09-49.63,94.3-32.83,119.88,12.59,19.09,38.17,30.93,66.42,30.93a93.84,93.84,0,0,0,22.91-2.68c48.87-9.54,85.9-38.56,106.89-81.7Zm67.19-47.34c-29-34-71.77-52.68-120.63-52.68H383.2A21,21,0,0,0,364.49,1070h-.76a21.39,21.39,0,0,0,.76,42.76h.76a21.49,21.49,0,0,0,18.71-13h6.87c29,0,56.5,8.4,81.32,24.82,19.09,12.6,32.83,29,40.47,48.87,6.49,16,6.1,31.68-.77,45-10.69,20.23-28.63,31.3-52.3,31.3a97.52,97.52,0,0,1-37.41-8c-4.2,3.82-11.84,9.93-17.18,13.75,16.41,7.63,33.21,11.83,49.25,11.83,36.65,0,63.75-20.23,74.06-40.47,11.07-22.14,10.3-60.32-18.33-92.77ZM316,1188a21.44,21.44,0,0,0,21.38,20.62h.76a21.39,21.39,0,0,0-.76-42.76h-.77a6.51,6.51,0,0,0-2.67.38c-15.65-26-22.14-54.21-19.85-84.75,1.53-22.91,9.16-42.76,22.52-59.18,11.07-14.13,32.45-21,47-21.38,40.47-.76,57.64,49.63,58.79,69.87,5,1.14,13.36,3.81,19.09,5.72-4.58-61.84-42.76-93.91-79.41-93.91-34.36,0-66,24.81-78.64,61.46-17.56,48.87-6.11,95.83,15.27,132.86A17.14,17.14,0,0,0,316,1188Z"/><path id="a" class="cls-4" d="M253.29,1998.84l1.88-3.68,116.71-221.44-51.86-98c-4.31-8.1-15.26-6-16.67,3Z"/><path id="c" class="cls-5" d="M409.71,1844.07l37.63-38.54-37.63-71.66c-3.57-6.8-12.26-7.52-15.79-.7l-20.8,40.07-.62,2Z"/><path class="cls-6" d="M251.82,2001.5l1.13-1.13,4.1-1.67L408,1848.34l1.91-5.2-37.65-71.74Z"/><path class="cls-7" d="M550.59,2000.52l-38.7-238.39c-1.21-7.46-8.88-10.54-14.22-5.19L253.33,2001l134.31,75.06a28.12,28.12,0,0,0,27.41,0l135.54-75.59Z"/><path class="cls-8" d="M388.28,2463.23a27.73,27.73,0,0,1,27.06,0q61.82,34.92,123.62,69.82A25.48,25.48,0,0,1,551.82,2555v140.08c0,9.29-5.64,18.12-13.82,22.39q-61.61,34.72-123.17,69.49a27,27,0,0,1-27.37-.76q-18.46-10.71-37-21.37c-2.51-1.5-5.35-2.69-7.13-5.13,1.57-2.12,4.38-2.38,6.66-3.31,5.14-1.63,9.86-4.26,14.59-6.8a3.37,3.37,0,0,1,3.79.23c10.53,6,21,12.24,31.53,18.22,2.25,1.3,4.53-.42,6.46-1.5q60.45-34.16,121-68.25a4,4,0,0,0,2.19-3.94q0-69.32,0-138.63a4.34,4.34,0,0,0-2.58-4.32q-61.39-34.57-122.75-69.19a4.26,4.26,0,0,0-4.82,0q-61.38,34.59-122.74,69.21a4.28,4.28,0,0,0-2.59,4.3v138.64a3.92,3.92,0,0,0,2.22,3.89q16.38,9.29,32.78,18.51c6.16,3.31,13.71,5.28,20.5,2.74a15.53,15.53,0,0,0,10.06-14.61c.06-45.93,0-91.88,0-137.81a3.46,3.46,0,0,1,3.77-3.53c5.25,0,10.5-.07,15.75,0a3.62,3.62,0,0,1,3.42,4.2c0,46.23.06,92.46,0,138.69,0,12.32-5,25.73-16.44,31.76-14,7.27-31.4,5.73-45.27-1.25-12-6-23.46-13.06-35.26-19.48a25.68,25.68,0,0,1-13.8-22.4V2555a25.48,25.48,0,0,1,13.29-22.19Z"/><path class="cls-8" d="M424.1,2560.26c17.91-1.15,37.08-.68,53.2,8.14,12.48,6.76,19.39,20.95,19.61,34.81a3.78,3.78,0,0,1-4.08,2.78c-5.2,0-10.4.07-15.59,0-2.21.08-3.49-1.95-3.77-3.9-1.49-6.63-5.11-13.2-11.35-16.4-9.58-4.79-20.69-4.55-31.14-4.45-7.63.4-15.83,1.06-22.3,5.55-5,3.4-6.47,10.26-4.7,15.78,1.67,4,6.25,5.25,10,6.43,21.58,5.64,44.45,5.08,65.62,12.51,8.77,3,17.34,8.91,20.34,18.09,3.93,12.3,2.21,27-6.55,36.88-7.09,8.12-17.43,12.54-27.74,14.95-13.71,3.05-27.94,3.13-41.87,1.77-13.09-1.49-26.72-4.93-36.83-13.85-8.64-7.51-12.87-19.2-12.45-30.49a3.49,3.49,0,0,1,3.83-3.08c5.23,0,10.46-.06,15.7,0a3.66,3.66,0,0,1,3.74,3.62c1,6.32,3.34,13,8.85,16.7,10.64,6.86,24,6.39,36.16,6.58,10.09-.44,21.41-.58,29.64-7.25,4.35-3.8,5.63-10.16,4.46-15.64-1.27-4.62-6.11-6.77-10.26-8.18-21.3-6.74-44.43-4.29-65.53-11.92-8.56-3-16.85-8.75-20.14-17.55-4.59-12.45-2.49-27.86,7.18-37.4,9.43-9.49,23-13.14,36-14.45Z"/></g></g></svg>