<svg xmlns="http://www.w3.org/2000/svg" viewBox="0 0 770 10000"><defs><style>.cls-1{fill:#f0f0f3;}.cls-2{fill:#ea4335;}.cls-3{fill:#4285f4;}.cls-4{fill:#34a853;}.cls-5{fill:#fbbc05;}.cls-6{fill:#599636;}.cls-7{fill:#6cac48;}.cls-8{fill:#c2bfbf;}.cls-9{fill:#252f3e;}.cls-10{fill:#f90;fill-rule:evenodd;}.cls-11{fill:#03a9f4;}.cls-12{fill:#0288d1;}.cls-13{fill:#81d4fa;}.cls-14{fill:#fff;}.cls-15{fill:#37474f;}.cls-16{fill:#01579b;}</style></defs><title>Asset 7</title><g id="Layer_2" data-name="Layer 2"><g id="Layer_1-2" data-name="Layer 1"><rect class="cls-1" width="770" height="1250"/><rect class="cls-1" y="1250" width="770" height="1250"/><rect class="cls-1" y="2500" width="770" height="1250"/><rect class="cls-1" y="3750" width="770" height="1250"/><rect class="cls-1" y="5000" width="770" height="1250"/><rect class="cls-1" y="6250" width="770" height="1250"/><rect class="cls-1" y="7500" width="770" height="1250"/><rect class="cls-1" y="8750" width="770" height="1250"/><path class="cls-2" d="M443.54,1159.61H458.8l43.47-43.47,2.14-18.44c-80.88-71.39-204.35-63.69-275.73,17.18A195,195,0,0,0,186.59,1193a23.71,23.71,0,0,1,15.26-.93l86.91-14.33s4.43-7.32,6.71-6.85a108.43,108.43,0,0,1,148.39-11.28Z"/><path class="cls-3" d="M564.18,1193a195.78,195.78,0,0,0-59-95.15l-61,61a108.43,108.43,0,0,1,39.8,86v10.83a54.29,54.29,0,0,1,0,108.57H375.39l-10.84,11v65.12l10.84,10.83H484A141.21,141.21,0,0,0,564.18,1193Z"/><path class="cls-4" d="M266.65,1450.58H375.24v-86.92H266.65a53.75,53.75,0,0,1-22.42-4.88L229,1363.49,185.21,1407l-3.82,15.26a140.59,140.59,0,0,0,85.26,28.36Z"/><path class="cls-5" d="M266.65,1168.6a141.2,141.2,0,0,0-85.23,253.14l63-63a54.29,54.29,0,1,1,71.82-71.83l63-63a141.15,141.15,0,0,0-112.55-55.35Z"/><path class="cls-6" d="M382.06,8501.37l13.34,25.06A75.29,75.29,0,0,0,405.48,8539a350.73,350.73,0,0,1,31.31,35.4c22.61,29.69,37.86,62.65,48.75,98.31a241.48,241.48,0,0,1,10.34,66.71c1.09,67.54-22.06,125.54-68.74,173.74a199.16,199.16,0,0,1-24.53,21c-4.63,0-6.82-3.54-8.72-6.81a56,56,0,0,1-6.81-19.61c-1.64-8.17-2.72-16.34-2.19-24.78v-3.81c-.38-.81-4.45-375.78-2.83-377.7Z"/><path class="cls-7" d="M382.06,8500.54c-.55-1.1-1.09-.27-1.64.26.27,5.47-1.64,10.35-4.62,15-3.28,4.63-7.63,8.17-12,12-24.21,21-43.28,46.29-58.54,74.61-20.31,38.13-30.78,79-33.75,122-1.36,15.51,4.91,70.26,9.8,86.05,13.34,41.94,37.31,77.07,68.35,107.57a298.49,298.49,0,0,0,24.22,20.7c2.45,0,2.72-2.18,3.28-3.81a73.27,73.27,0,0,0,2.45-10.62l5.47-40.84Z"/><path class="cls-8" d="M395.4,8950.68c.55-6.25,3.55-11.44,6.82-16.61-3.28-1.36-5.72-4.06-7.63-7.08a51.05,51.05,0,0,1-4.06-9c-3.81-11.44-4.62-23.44-5.72-35.13v-7.07c-1.36,1.09-1.64,10.34-1.64,11.71a270.82,270.82,0,0,1-4.9,36.77c-.82,4.9-1.36,9.79-4.38,14.15a5.34,5.34,0,0,0,.27,1.91c4.9,14.43,6.25,29.14,7.07,44.12v5.47c0,6.53-.26,5.15,5.16,7.34,2.19.81,4.62,1.1,6.81,2.72,1.64,0,1.91-1.36,1.91-2.45l-.81-9V8963.5c-.27-4.37.54-8.72,1.09-12.81Z"/><path class="cls-9" d="M276,3733a50.13,50.13,0,0,0,1.83,14.8,88.4,88.4,0,0,0,5.32,12,7.26,7.26,0,0,1,1.16,3.83c0,1.66-1,3.32-3.16,5l-10.47,7a8,8,0,0,1-4.33,1.5,7.66,7.66,0,0,1-5-2.33,50.45,50.45,0,0,1-6-7.82c-1.67-2.82-3.33-6-5.16-9.81q-19.46,23-48.89,23c-14,0-25.11-4-33.26-12s-12.3-18.63-12.3-31.93c0-14.13,5-25.61,15.13-34.26s23.61-13,40.74-13a132.08,132.08,0,0,1,17.63,1.33c6.15.83,12.47,2.16,19.12,3.66v-12.14c0-12.64-2.66-21.45-7.81-26.61-5.33-5.15-14.31-7.64-27.11-7.64a75.47,75.47,0,0,0-18,2.16,131.41,131.41,0,0,0-18,5.65,46.38,46.38,0,0,1-5.82,2.16,9.91,9.91,0,0,1-2.66.5c-2.33,0-3.49-1.66-3.49-5.15v-8.15c0-2.66.33-4.66,1.16-5.82a12.34,12.34,0,0,1,4.66-3.49,95.55,95.55,0,0,1,21-7.49,100.93,100.93,0,0,1,25.94-3.16c19.79,0,34.26,4.49,43.57,13.47,9.15,9,13.8,22.62,13.8,40.91V3733Zm-67.52,25.28a53.8,53.8,0,0,0,17.13-3,37,37,0,0,0,15.8-10.64,26.42,26.42,0,0,0,5.65-10.64,59.64,59.64,0,0,0,1.66-14.47v-7a136.09,136.09,0,0,0-15.29-2.83,124.57,124.57,0,0,0-15.64-1c-11.14,0-19.29,2.16-24.77,6.65s-8.15,10.81-8.15,19.13c0,7.81,2,13.63,6.15,17.62,4,4.16,9.81,6.16,17.46,6.16Zm133.54,18c-3,0-5-.5-6.32-1.67-1.33-1-2.5-3.32-3.5-6.48l-39.08-128.55a29.29,29.29,0,0,1-1.49-6.65c0-2.66,1.33-4.16,4-4.16h16.3c3.16,0,5.32.5,6.48,1.67,1.33,1,2.33,3.32,3.33,6.48l27.94,110.09,25.94-110.09c.83-3.32,1.83-5.49,3.16-6.48a11.42,11.42,0,0,1,6.65-1.67h13.3c3.16,0,5.32.5,6.65,1.67,1.33,1,2.5,3.32,3.16,6.48l26.28,111.42,28.77-111.42c1-3.32,2.16-5.49,3.32-6.48,1.33-1,3.5-1.67,6.49-1.67h15.46c2.66,0,4.16,1.33,4.16,4.16a17.35,17.35,0,0,1-.33,2.66,23.67,23.67,0,0,1-1.17,4.16l-40.07,128.55q-1.5,5-3.49,6.48a10.66,10.66,0,0,1-6.32,1.66H427.33c-3.15,0-5.32-.5-6.65-1.66s-2.49-3.33-3.16-6.65l-25.77-107.26-25.61,107.09c-.83,3.33-1.83,5.49-3.16,6.65s-3.66,1.67-6.65,1.67Zm213.68,4.49a109.9,109.9,0,0,1-25.61-3c-8.31-2-14.8-4.15-19.12-6.65-2.66-1.49-4.49-3.16-5.15-4.65a11.68,11.68,0,0,1-1-4.66v-8.48c0-3.49,1.33-5.16,3.82-5.16a9.53,9.53,0,0,1,3,.5c1,.34,2.49,1,4.15,1.67a90.81,90.81,0,0,0,18.3,5.82,99.82,99.82,0,0,0,19.79,2c10.47,0,18.62-1.83,24.27-5.49a17.88,17.88,0,0,0,8.65-15.79,16.23,16.23,0,0,0-4.49-11.65c-3-3.15-8.65-6-16.79-8.64L541.41,3709c-12.14-3.82-21.12-9.47-26.6-17a39.58,39.58,0,0,1-8.32-24.11,37.06,37.06,0,0,1,4.49-18.46,42.86,42.86,0,0,1,12-13.64,52.81,52.81,0,0,1,17.3-8.64,72.33,72.33,0,0,1,21-2.83,83.18,83.18,0,0,1,11.14.67c3.83.49,7.32,1.16,10.81,1.82,3.33.84,6.49,1.67,9.48,2.67a35.78,35.78,0,0,1,7,3,14.45,14.45,0,0,1,5,4.16,9,9,0,0,1,1.49,5.48V3650c0,3.49-1.33,5.32-3.82,5.32-1.33,0-3.5-.66-6.32-2a76,76,0,0,0-31.93-6.49c-9.48,0-17,1.5-22.12,4.66s-7.81,8-7.81,14.8a15.71,15.71,0,0,0,5,11.8c3.33,3.16,9.48,6.32,18.3,9.15L581,3694.7c12,3.83,20.62,9.15,25.78,16a37.66,37.66,0,0,1,7.65,23.28,42.73,42.73,0,0,1-4.33,19.29A44.64,44.64,0,0,1,598,3767.87a53.59,53.59,0,0,1-18.46,9.32,79.27,79.27,0,0,1-23.78,3.49Z"/><path class="cls-10" d="M587.14,3861.5c-54.71,40.41-134.2,61.86-202.54,61.86-95.79,0-182.1-35.42-247.28-94.29-5.16-4.66-.5-11,5.65-7.32,70.51,40.91,157.48,65.69,247.45,65.69,60.69,0,127.38-12.64,188.74-38.58C588.31,3844.7,596.12,3854.84,587.14,3861.5Z"/><path class="cls-10" d="M609.93,3835.55c-7-9-46.23-4.32-64-2.16-5.32.67-6.15-4-1.33-7.48,31.27-21.95,82.65-15.63,88.64-8.32,6,7.49-1.67,58.87-30.93,83.48-4.49,3.83-8.82,1.83-6.82-3.15C602.11,3881.45,616.91,3844.37,609.93,3835.55Z"/><path class="cls-11" d="M565.53,6193.25c4.43-19.69-1-42.9-28.38-68.1-44.42,40.21-31.72,82-17,102.15,0,0-1.89,11.35-45.4,11.35H134.23s-20.8,181.6,181.6,181.6c177,0,226.69-136.23,236.39-171.11a95.94,95.94,0,0,0,13.31.86c24.37-.19,56-13.29,68.1-62.24C601.42,6176.6,580.72,6181.65,565.53,6193.25Z"/><path class="cls-12" d="M136.1,6284.05c8.35,53.79,43.34,136.2,179.73,136.2,138.3,0,198.88-83.2,223.39-136.2Z"/><path class="cls-13" d="M336.4,6419.54c-10.45-3.65-57.57-12.37-66-78.74a176.15,176.15,0,0,1-108.72,11.44c24.54,36.65,70,68,154.12,68C322.9,6420.25,329.72,6420,336.4,6419.54Z"/><path class="cls-14" d="M315.83,6306.75a22.7,22.7,0,1,0,22.7,22.7A22.7,22.7,0,0,0,315.83,6306.75Z"/><path class="cls-15" d="M280.8,6347.57c2.55,5.74.23,13.19-5.78,15-37.47,11.05-69.76,12.51-94.17,12.51a137.47,137.47,0,0,1-18.8-22.28c29.34,0,76.16-1.36,103.78-11C271.76,6339.73,278.26,6341.82,280.8,6347.57ZM134.23,6272.7s21.28,1.42,34.05-11.35c21.28,19.16,67.42,12.35,79.45,0,12.07,19.16,78.75,15.61,90.8,0,14.19,16.32,75.19,19.86,90.8,0,5.43,16.58,77.39,21.27,90.8,0,12,12.35,57.46,22,83,0,6.4,13.48,30.52,11.35,30.52,11.35v11.35H134.23m170.25,45.4a11.35,11.35,0,1,0,11.35-11.35A11.35,11.35,0,0,0,304.48,6329.45Z"/><path class="cls-16" d="M236.38,6238.65H179.63V6181.9h56.75Zm113.5-56.75H293.13v56.75h56.75Zm113.5,0H406.63v56.75h56.75Zm-170.25-56.75H236.38v56.75h56.75Zm113.5,0H349.88v56.75h56.75Z"/><path class="cls-12" d="M293.13,6238.65H236.38V6181.9h56.75Zm113.5-56.75H349.88v56.75h56.75Zm0-113.5H349.88v56.75h56.75Zm-56.75,56.75H293.13v56.75h56.75Z"/></g></g></svg>