<svg height="512pt" viewBox="0 0 512 512" width="512pt" xmlns="http://www.w3.org/2000/svg"><path d="m413.332031 314.667969c-32.347656 0-58.667969-26.320313-58.667969-58.667969v-157.332031c0-54.40625-44.261718-98.667969-98.664062-98.667969-54.40625 0-98.667969 44.261719-98.667969 98.667969v157.332031c0 32.347656-26.316406 58.667969-58.667969 58.667969-54.402343 0-98.664062 44.261719-98.664062 98.664062 0 11.046875 8.953125 20 20 20s20-8.953125 20-20c0-32.347656 26.316406-58.664062 58.667969-58.664062 47.554687 0 87.355469-33.820313 96.628906-78.667969h23.902344c-15.144531 37.359375-7.589844 81.84375 22.660156 112.09375 24.71875 24.722656 24.71875 64.945312 0 89.667969-7.8125 7.808593-7.8125 20.472656 0 28.285156 7.808594 7.808594 20.472656 7.808594 28.28125 0 40.320313-40.316406 40.320313-105.917969 0-146.238281-22.855469-22.855469-24.5625-58.953125-5.15625-83.808594h51.71875c9.273437 44.847656 49.074219 78.667969 96.628906 78.667969 32.351563 0 58.667969 26.316406 58.667969 58.664062 0 11.046875 8.953125 20 20 20s20-8.953125 20-20c0-54.402343-44.261719-98.664062-98.667969-98.664062zm-216-216c0-32.351563 26.320313-58.667969 58.667969-58.667969s58.667969 26.316406 58.667969 58.667969v137.332031c-5.003907 0-112.332031 0-117.332031 0v-137.332031zm33.667969 39.332031c0-13.808594 11.191406-25 25-25s25 11.191406 25 25-11.191406 25-25 25-25-11.191406-25-25zm0 0"/></svg>