<?xml version="1.0" standalone="no"?>
<!DOCTYPE svg PUBLIC "-//W3C//DTD SVG 1.1//EN" "http://www.w3.org/Graphics/SVG/1.1/DTD/svg11.dtd" >
<svg xmlns="http://www.w3.org/2000/svg">
<metadata>Generated by IcoMoon</metadata>
<defs>
<font id="icomoon" horiz-adv-x="1024">
<font-face units-per-em="1024" ascent="960" descent="-64" />
<missing-glyph horiz-adv-x="1024" />
<glyph unicode="&#x20;" horiz-adv-x="512" d="" />
<glyph unicode="&#xe900;" d="M290.508 530.619c0-12.426 1.343-22.502 3.694-29.89 2.687-7.389 6.045-15.449 10.747-24.181 1.679-2.687 2.351-5.374 2.351-7.724 0-3.358-2.015-6.717-6.381-10.075l-21.158-14.106c-3.023-2.015-6.045-3.023-8.732-3.023-3.358 0-6.717 1.679-10.075 4.702-4.702 5.038-8.732 10.411-12.091 15.785-3.358 5.709-6.717 12.091-10.411 19.815-26.196-30.898-59.109-46.347-98.739-46.347-28.211 0-50.713 8.060-67.17 24.181s-24.853 37.615-24.853 64.483c0 28.547 10.075 51.721 30.562 69.185s47.69 26.196 82.283 26.196c11.419 0 23.173-1.008 35.6-2.687s25.189-4.366 38.622-7.389v24.517c0 25.524-5.374 43.324-15.785 53.736-10.747 10.411-28.883 15.449-54.743 15.449-11.755 0-23.845-1.343-36.272-4.366s-24.517-6.717-36.272-11.419c-5.374-2.351-9.404-3.694-11.755-4.366s-4.030-1.008-5.374-1.008c-4.702 0-7.053 3.358-7.053 10.411v16.457c0 5.374 0.672 9.404 2.351 11.755s4.702 4.702 9.404 7.053c11.755 6.045 25.86 11.083 42.317 15.113 16.457 4.366 33.921 6.381 52.392 6.381 39.966 0 69.185-9.068 87.992-27.204 18.472-18.136 27.875-45.675 27.875-82.619v-108.815zM154.154 479.57c11.083 0 22.502 2.015 34.592 6.045s22.838 11.419 31.906 21.494c5.374 6.381 9.404 13.434 11.419 21.494s3.358 17.8 3.358 29.219v14.106c-9.74 2.351-20.151 4.366-30.898 5.709s-21.158 2.015-31.57 2.015c-22.502 0-38.958-4.366-50.041-13.434s-16.457-21.83-16.457-38.622c0-15.785 4.030-27.54 12.426-35.6 8.060-8.396 19.815-12.426 35.264-12.426zM423.84 443.298c-6.045 0-10.075 1.008-12.762 3.358-2.687 2.015-5.038 6.717-7.053 13.098l-78.924 259.61c-2.015 6.717-3.023 11.083-3.023 13.434 0 5.374 2.687 8.396 8.060 8.396h32.913c6.381 0 10.747-1.008 13.098-3.358 2.687-2.015 4.702-6.717 6.717-13.098l56.422-222.331 52.392 222.331c1.679 6.717 3.694 11.083 6.381 13.098s7.389 3.358 13.434 3.358h26.868c6.381 0 10.747-1.008 13.434-3.358 2.687-2.015 5.038-6.717 6.381-13.098l53.064-225.018 58.102 225.018c2.015 6.717 4.366 11.083 6.717 13.098 2.687 2.015 7.053 3.358 13.098 3.358h31.234c5.374 0 8.396-2.687 8.396-8.396 0-1.679-0.336-3.358-0.672-5.374s-1.008-4.702-2.351-8.396l-80.939-259.61c-2.015-6.717-4.366-11.083-7.053-13.098s-7.053-3.358-12.762-3.358h-28.883c-6.381 0-10.747 1.008-13.434 3.358s-5.038 6.717-6.381 13.434l-52.056 216.622-51.721-216.286c-1.679-6.717-3.694-11.083-6.381-13.434s-7.389-3.358-13.434-3.358zM855.404 434.23c-17.464 0-34.928 2.015-51.721 6.045s-29.89 8.396-38.622 13.434c-5.374 3.023-9.068 6.381-10.411 9.404s-2.015 6.381-2.015 9.404v17.128c0 7.053 2.687 10.411 7.724 10.411 2.015 0 4.030-0.336 6.045-1.008s5.038-2.015 8.396-3.358c11.419-5.038 23.845-9.068 36.943-11.755 13.434-2.687 26.532-4.030 39.966-4.030 21.158 0 37.615 3.694 49.034 11.083s17.464 18.136 17.464 31.906c0 9.404-3.023 17.128-9.068 23.509s-17.464 12.091-33.921 17.464l-48.698 15.113c-24.517 7.724-42.653 19.143-53.736 34.256-11.083 14.777-16.792 31.234-16.792 48.698 0 14.106 3.023 26.532 9.068 37.279s14.106 20.151 24.181 27.54c10.075 7.724 21.494 13.434 34.928 17.464s27.54 5.709 42.317 5.709c7.389 0 15.113-0.336 22.502-1.343 7.724-1.008 14.777-2.351 21.83-3.694 6.717-1.679 13.098-3.358 19.143-5.374s10.747-4.030 14.106-6.045c4.702-2.687 8.060-5.374 10.075-8.396 2.015-2.687 3.023-6.381 3.023-11.083v-15.785c0-7.053-2.687-10.747-7.724-10.747-2.687 0-7.053 1.343-12.762 4.030-19.143 8.732-40.638 13.098-64.483 13.098-19.143 0-34.256-3.023-44.668-9.404s-15.785-16.121-15.785-29.89c0-9.404 3.358-17.464 10.075-23.845s19.143-12.762 36.943-18.472l47.69-15.113c24.181-7.724 41.645-18.472 52.056-32.241s15.449-29.555 15.449-47.019c0-14.441-3.023-27.54-8.732-38.958-6.045-11.419-14.106-21.494-24.517-29.555-10.411-8.396-22.838-14.441-37.279-18.807-15.113-4.702-30.898-7.053-48.026-7.053z" />
<glyph unicode="&#xe901;" d="M918.88 271.008c-110.494-81.611-271.029-124.935-409.063-124.935-193.448 0-367.753 71.536-499.406 190.426-10.411 9.404-1.008 22.166 11.419 14.777 142.399-82.619 318.048-132.66 499.742-132.66 122.584 0 257.259 25.524 381.187 77.917 18.472 8.396 34.256-12.091 16.121-25.524z" />
<glyph unicode="&#xe902;" d="M964.891 323.4c-14.106 18.136-93.366 8.732-129.301 4.366-10.747-1.343-12.426 8.060-2.687 15.113 63.139 44.332 166.916 31.57 179.007 16.792 12.091-15.113-3.358-118.89-62.468-168.596-9.068-7.724-17.8-3.694-13.77 6.381 13.434 33.249 43.324 108.143 29.219 125.943z" />
<glyph unicode="&#xe903;" d="M0 68.036c0-72.928 59.116-132.036 132.036-132.036h759.924c72.932 0 132.040 59.116 132.040 132.036v759.924c0 72.932-59.116 132.040-132.036 132.040h-759.924c-72.932 0-132.040-59.116-132.040-132.036v-759.924z" />
<glyph unicode="&#xe904;" d="M424.632 507.048v145.012h127.644c12.16 0 23.88-1.012 35.168-3.040 11.288-2.024 21.276-5.64 29.96-10.852 8.68-5.212 15.628-12.448 20.84-21.708 5.208-9.264 7.816-21.132 7.816-35.6 0-26.052-7.816-44.868-23.448-56.444-15.628-11.58-35.6-17.368-59.916-17.368h-138.064zM288.3 758v-620h300.448c27.788 0 54.852 3.472 81.192 10.42s49.784 17.656 70.336 32.128c20.548 14.472 36.904 33.144 49.060 56.008 12.16 22.868 18.236 49.932 18.236 81.192 0 38.788-9.408 71.928-28.22 99.424-18.816 27.5-47.328 46.748-85.536 57.748 27.788 13.312 48.776 30.392 62.96 51.232 14.18 20.84 21.272 46.888 21.272 78.152 0 28.944-4.776 53.256-14.328 72.94-9.552 19.68-23.012 35.456-40.38 47.324-17.364 11.868-38.204 20.408-62.52 25.616-24.312 5.212-51.232 7.816-80.756 7.816h-291.764zM424.632 243.94v170.196h148.484c29.524 0 53.26-6.8 71.208-20.408 17.944-13.604 26.92-36.324 26.92-68.164 0-16.212-2.752-29.524-8.252-39.944s-12.88-18.672-22.144-24.748c-9.26-6.080-19.972-10.42-32.128-13.028-12.16-2.6-24.892-3.904-38.208-3.904h-145.88z" />
<glyph unicode="&#xe905;" glyph-name="circleci" horiz-adv-x="1012" d="M619.729 449.945c0-66.801-54.153-120.955-120.955-120.955s-120.955 54.153-120.955 120.955c0 66.801 54.153 120.955 120.955 120.955s120.955-54.153 120.955-120.955zM4.752 578.186c0-1.455-1.459-4.369-1.459-5.828 0-13.114 10.2-24.774 24.774-24.774h205.48c10.2 0 17.487 5.828 21.86 14.573 42.265 93.267 135.532 155.933 241.909 155.933 147.187 0 266.687-119.5 266.687-266.687s-119.5-266.687-266.687-266.687c-107.84 0-199.648 64.121-241.909 154.474-4.373 10.2-11.659 16.032-21.864 16.032h-205.468c-13.118 0-24.778-10.2-24.778-24.778 0-1.455 0-4.369 1.459-5.828 56.834-221.508 256.482-384.727 494.023-384.727 281.26 0 510.055 228.799 510.055 510.055-0.004 281.26-228.803 510.055-510.059 510.055-237.536 0-437.189-163.219-494.023-381.814z" />
<glyph unicode="&#xe906;" horiz-adv-x="725" d="M568.488 922.109h-60.175l62.592-67.958v-32.32h-128.952v37.85h62.592l-62.592 67.958v32.361h126.577zM416.351 922.109h-60.257l62.674-67.958v-32.32h-128.993v37.85h62.592l-62.592 67.958v32.361h126.577zM265.688 920.552h-64.927v-59.315h64.927v-39.448h-111.133v138.21h111.133z" />
<glyph unicode="&#xe907;" horiz-adv-x="725" d="M66.033 18.213l-66.033 740.493h725.46l-66.115-740.37-297.066-82.336z" />
<glyph unicode="&#xe908;" horiz-adv-x="725" d="M362.73-1.080l240.045 66.565 56.447 632.678h-296.492z" />
<glyph unicode="&#xe909;" horiz-adv-x="725" d="M362.73 429.894h120.186l8.275 92.987h-128.461v90.775h227.756l-2.171-24.373-22.325-250.286h-203.26z" />
<glyph unicode="&#xe90a;" horiz-adv-x="725" d="M363.221 194.028h-0.41l-101.138 27.323-6.472 72.423h-91.102l12.74-142.593 186.588-51.778v94.625z" />
<glyph unicode="&#xe90b;" horiz-adv-x="725" d="M475.215 342.97l-10.937-121.538-101.302-27.323v-94.625l186.178 51.614 1.352 15.361 15.812 176.552h-91.102z" />
<glyph unicode="&#xe90c;" horiz-adv-x="725" d="M363.058 613.655v-90.816h-219.317l-1.884 20.4-4.137 46.043-2.171 24.373zM362.73 429.894v-90.816h-99.991l-1.761 20.4-4.137 46.043-2.171 24.373h108.020z" />
<glyph unicode="&#xe90d;" glyph-name="digitalocean" d="M473.121-64v183.357c194.081 0 344.737 192.467 270.206 396.74-28.334 76.165-87.345 135.182-161.613 162.905l-1.893 0.619c-204.272 73.981-396.74-76.125-396.74-270.206h-182.826c0 309.322 299.168 550.585 623.521 449.274 141.546-44.525 254.662-157.090 298.637-298.656 101.33-324.866-139.402-624.034-449.293-624.034zM291.377 118.826h182.276v182.276h-182.257zM150.913-21.639h140.446v140.446h-140.446zM33.489 118.807h117.424v117.443h-117.424z" />
<glyph unicode="&#xe90e;" d="M853.333 533.333c8.341 37.013-1.963 80.64-53.333 128-83.499-75.584-59.627-154.176-32-192 0 0-3.541-21.333-85.333-21.333s-640 0-640 0-39.104-341.333 341.333-341.333c332.651 0 426.091 256.064 444.331 321.621 7.552-1.024 16.021-1.685 25.003-1.621 45.803 0.363 105.173 24.981 128 116.992-60.544 20.971-99.435 11.477-128-10.325z" />
<glyph unicode="&#xe90f;" d="M46.187 362.667c15.68-101.099 81.451-256 337.813-256 259.947 0 373.824 156.373 419.883 256h-757.696z" />
<glyph unicode="&#xe910;" d="M422.656 107.989c-19.627 6.869-108.203 23.253-123.989 148.011-89.792-39.744-169.344-29.333-204.352-21.504 46.123-68.885 131.627-127.829 289.685-127.829 13.291 0 26.112 0.512 38.656 1.323z" />
<glyph unicode="&#xe911;" d="M384 320c-23.564 0-42.667-19.103-42.667-42.667s19.103-42.667 42.667-42.667v0c23.564 0 42.667 19.103 42.667 42.667s-19.103 42.667-42.667 42.667v0z" />
<glyph unicode="&#xe912;" d="M318.165 243.264c4.779-10.773 0.427-24.789-10.88-28.117-70.421-20.757-131.115-23.509-177.003-23.509-13.739 13.205-25.472 27.285-35.328 41.877 55.147 0 143.147 2.56 195.072 20.608 11.136 3.883 23.36-0.043 28.139-10.859zM42.667 384c0 0 40-2.667 64 21.333 40-36.011 126.72-23.211 149.333 0 22.677-36.011 148.011-29.333 170.667 0 26.667-30.677 141.333-37.333 170.667 0 10.219-31.168 145.472-39.979 170.667 0 22.635-23.211 108.011-41.344 155.968 0 12.032-25.344 57.365-21.333 57.365-21.333v-21.333h-938.667zM362.667 277.333c0-11.776 9.557-21.333 21.333-21.333s21.333 9.557 21.333 21.333-9.557 21.333-21.333 21.333-21.333-9.557-21.333-21.333z" />
<glyph unicode="&#xe913;" d="M234.667 448h-106.667v106.667h106.667v-106.667zM448 554.667h-106.667v-106.667h106.667v106.667zM661.333 554.667h-106.667v-106.667h106.667v106.667zM341.333 661.333h-106.667v-106.667h106.667v106.667zM554.667 661.333h-106.667v-106.667h106.667v106.667z" />
<glyph unicode="&#xe914;" d="M341.333 448h-106.667v106.667h106.667v-106.667zM554.667 554.667h-106.667v-106.667h106.667v106.667zM554.667 768h-106.667v-106.667h106.667v106.667zM448 661.333h-106.667v-106.667h106.667v106.667z" />
<glyph unicode="&#xe915;" horiz-adv-x="747" d="M-0.074 134.388l6.194 8.67 292.917 555.802 0.618 5.884-129.12 242.542c-10.823 20.317-41.281 15.179-44.828-7.565l-125.78-805.334z" />
<glyph unicode="&#xe916;" horiz-adv-x="747" d="M3.581 140.998l4.682 9.134 289.85 549.978-128.802 243.528c-10.704 20.104-37.888 14.978-41.401-7.527l-124.33-795.114z" />
<glyph unicode="&#xe917;" horiz-adv-x="747" d="M3.581 140.998l4.682 9.134 289.85 549.978-128.802 243.528c-10.704 20.104-37.888 14.978-41.401-7.527l-124.33-795.114z" />
<glyph unicode="&#xe918;" horiz-adv-x="747" d="M393.787 521.285l96.142 98.462-96.171 183.591c-9.128 17.379-34.618 17.431-43.65 0l-51.384-97.986v-8.344l95.060-175.722z" />
<glyph unicode="&#xe919;" horiz-adv-x="747" d="M392.071 525.386l93.47 95.725-93.47 177.981c-8.875 16.895-30.437 18.665-39.218 1.721l-51.652-99.509-1.546-5.088 92.417-170.83z" />
<glyph unicode="&#xe91a;" horiz-adv-x="747" d="M392.071 525.386l93.47 95.725-93.47 177.981c-8.875 16.895-30.437 18.665-39.218 1.721l-51.652-99.509-1.546-5.088 92.417-170.83z" />
<glyph unicode="&#xe91b;" horiz-adv-x="747" d="M-0.074 134.388l2.807 2.824 10.199 4.143 374.816 373.425 4.749 12.927-93.502 178.176z" />
<glyph unicode="&#xe91c;" horiz-adv-x="747" d="M405.795-53.938l339.218 189.183-96.869 596.589c-3.031 18.665-25.93 26.043-39.291 12.661l-608.927-610.109 337.272-188.311c9.882-5.618 21.71-8.929 34.311-8.929 12.591 0 24.409 3.306 34.635 9.097l-0.35-0.182z" />
<glyph unicode="&#xe91d;" horiz-adv-x="747" d="M741.973 136.832l-96.133 592.059c-3.005 18.525-22.050 26.189-35.309 12.906l-606.841-606.249 333.57-186.444c9.808-5.576 21.546-8.863 34.053-8.863 12.494 0 24.221 3.28 34.369 9.026l-0.347-0.181 336.642 187.748z" />
<glyph unicode="&#xe91e;" horiz-adv-x="747" d="M405.792-48.363c-9.875-5.608-21.694-8.914-34.284-8.914-12.601 0-24.428 3.311-34.659 9.111l0.349-0.182-334.556 185.604-2.713-2.868 337.269-188.311c9.882-5.618 21.71-8.929 34.311-8.929 12.591 0 24.409 3.306 34.635 9.097l-0.35-0.182 339.218 189.183-0.831 5.111-338.387-188.722z" />
<glyph unicode="&#xe91f;" glyph-name="git" d="M1004.688 493.624l-447.088 447.064c-25.732 25.748-67.492 25.748-93.256 0l-92.84-92.84 117.772-117.772c27.368 9.248 58.752 3.044 80.568-18.772 21.92-21.956 28.080-53.608 18.608-81.064l113.5-113.504c27.46 9.46 59.144 3.34 81.076-18.628 30.652-30.64 30.652-80.3 0-110.96-30.66-30.664-80.32-30.664-110.996 0-23.056 23.080-28.752 56.94-17.080 85.344l-105.848 105.848-0.012-278.548c7.989-3.999 14.835-8.957 20.756-14.844l-0.004 0.004c30.652-30.64 30.652-80.304 0-110.988-30.66-30.648-80.344-30.648-110.96 0-30.652 30.684-30.652 80.344 0 110.984 7.158 7.161 15.69 12.948 25.166 16.931l0.518 0.193v281.144c-10.005 4.147-18.541 9.938-25.68 17.12l-0.004 0.004c-23.224 23.192-28.808 57.268-16.908 85.784l-116.096 116.108-306.56-306.54c-25.76-25.772-25.76-67.536 0-93.288l447.096-447.072c25.74-25.752 67.492-25.752 93.264 0l445.004 444.996c25.752 25.76 25.752 67.548 0 93.296z" />
<glyph unicode="&#xe920;" glyph-name="github" d="M510.020 946c-281.64 0-510.020-228.34-510.020-510.020 0-225.344 146.136-416.52 348.784-483.96 25.488-4.72 34.848 11.064 34.848 24.536 0 12.16-0.476 52.34-0.692 94.956-141.892-30.852-171.832 60.176-171.832 60.176-23.2 58.952-56.628 74.624-56.628 74.624-46.272 31.656 3.488 31.008 3.488 31.008 51.216-3.6 78.184-52.56 78.184-52.56 45.488-77.972 119.312-55.428 148.416-42.4 4.576 32.968 17.796 55.464 32.38 68.2-113.28 12.9-232.368 56.632-232.368 252.056 0 55.68 19.924 101.18 52.552 136.896-5.296 12.848-22.752 64.72 4.94 134.972 0 0 42.828 13.708 140.292-52.28 40.68 11.304 84.312 16.968 127.656 17.16 43.344-0.192 87.008-5.856 127.768-17.16 97.348 65.988 140.116 52.28 140.116 52.28 27.76-70.252 10.296-122.124 5-134.972 32.7-35.716 52.488-81.212 52.488-136.896 0-195.888-119.312-239.024-232.88-251.648 18.292-15.828 34.592-46.868 34.592-94.448 0-68.24-0.592-123.164-0.592-139.964 0-13.572 9.18-29.476 35.036-24.468 202.536 67.516 348.488 258.624 348.488 483.892 0 281.68-228.348 510.020-510.016 510.020zM191.020 219.464c-1.12-2.532-5.112-3.292-8.74-1.556-3.7 1.664-5.78 5.12-4.58 7.664 1.1 2.608 5.092 3.336 8.784 1.584 3.708-1.66 5.82-5.148 4.536-7.692zM216.108 197.080c-2.432-2.256-7.188-1.208-10.416 2.356-3.336 3.556-3.96 8.308-1.492 10.6 2.508 2.252 7.12 1.2 10.464-2.36 3.336-3.596 3.984-8.32 1.44-10.6zM233.32 168.44c-3.128-2.172-8.24-0.136-11.396 4.4-3.124 4.532-3.124 9.972 0.068 12.152 3.168 2.18 8.2 0.22 11.4-4.28 3.12-4.612 3.12-10.052-0.076-12.276zM262.424 135.268c-2.796-3.080-8.748-2.256-13.108 1.952-4.456 4.112-5.7 9.948-2.896 13.032 2.828 3.088 8.816 2.22 13.208-1.952 4.428-4.104 5.78-9.984 2.8-13.032zM300.040 124.068c-1.228-3.992-6.964-5.808-12.74-4.112-5.768 1.748-9.544 6.428-8.38 10.464 1.2 4.020 6.96 5.912 12.78 4.096 5.76-1.74 9.544-6.384 8.344-10.448zM342.856 119.32c0.144-4.208-4.756-7.696-10.82-7.772-6.1-0.132-11.032 3.272-11.096 7.408 0 4.248 4.788 7.704 10.884 7.804 6.064 0.12 11.032-3.26 11.032-7.44zM384.912 120.932c0.728-4.104-3.488-8.32-9.508-9.44-5.92-1.080-11.4 1.452-12.156 5.52-0.736 4.208 3.56 8.42 9.468 9.512 6.032 1.048 11.428-1.42 12.196-5.592z" />
<glyph unicode="&#xe921;" d="M512.3-24.3l188.416 579.88h-376.836l188.416-579.88z" />
<glyph unicode="&#xe922;" d="M512.3-24.296l-188.42 579.88h-264.056l452.476-579.88z" />
<glyph unicode="&#xe923;" d="M59.824 555.584l-57.256-176.224c-1.211-3.6-1.91-7.746-1.91-12.055 0-12.925 6.286-24.382 15.968-31.48l0.109-0.076 495.564-360.048-452.48 579.88z" />
<glyph unicode="&#xe924;" d="M59.824 555.58h264.056l-113.476 349.26c-5.84 17.972-31.264 17.968-37.1 0l-113.48-349.26z" />
<glyph unicode="&#xe925;" d="M512.3-24.296l188.416 579.88h264.060l-452.48-579.88z" />
<glyph unicode="&#xe926;" d="M964.776 555.584l57.256-176.224c1.21-3.6 1.909-7.745 1.909-12.053 0-12.927-6.288-24.385-15.972-31.483l-0.109-0.076-495.56-360.048 452.476 579.88z" />
<glyph unicode="&#xe927;" d="M964.776 555.58h-264.060l113.48 349.26c5.84 17.972 31.264 17.968 37.1 0l113.48-349.26z" />
<glyph unicode="&#xe928;" d="M649.678 633.101h31.244l89.010 89.010 4.378 37.767c-165.617 146.175-418.441 130.425-564.616-35.192-40.642-46.007-70.126-100.726-86.177-159.952 9.914 4.077 20.901 4.721 31.244 1.888l177.977 29.355c0 0 9.055 14.978 13.733 14.034 79.182 86.95 212.439 97.078 303.852 23.089h-0.644z" />
<glyph unicode="&#xe929;" d="M896.708 564.734c-20.471 75.319-62.444 143.042-120.854 194.843l-124.889-124.889c52.745-43.089 82.787-108.022 81.499-176.131v-22.188c61.414 0 111.155-49.784 111.155-111.155 0-61.414-49.784-111.155-111.155-111.155h-222.353l-22.188-22.489v-133.343l22.188-22.188h222.353c127.464-0.987 240.55 81.628 278.403 203.341 37.767 121.756-8.583 253.94-114.159 325.354v0z" />
<glyph unicode="&#xe92a;" d="M287.458 37.284h222.353v177.977h-222.353c-15.836 0-31.501 3.39-45.921 10l-31.244-9.656-89.611-89.010-7.811-31.244c50.256-37.939 111.584-58.324 174.586-58.067v0z" />
<glyph unicode="&#xe92b;" d="M287.458 614.69c-123.515-0.73-232.911-79.826-272.308-196.86s-0.129-246.215 97.765-321.491l128.966 128.966c-55.964 25.278-80.813 91.113-55.535 147.077s91.113 80.813 147.077 55.535c24.634-11.158 44.376-30.9 55.535-55.535l128.966 128.966c-54.891 71.714-140.167 113.644-230.464 113.344v0z" />
<glyph unicode="&#xe92c;" glyph-name="graphql" horiz-adv-x="910" d="M542.447 842.798c2.45 8.252 3.765 16.996 3.765 26.055 0 50.404-40.74 91.147-91.147 91.147s-91.147-40.747-91.147-91.147v0.005c0-0.031 0-0.062 0-0.093 0-9.208 1.362-18.098 3.726-25.832l-210.395-121.414c-5.907 6.222-12.677 11.617-20.549 16.227-43.616 25.074-99.502 10.187-124.576-33.429s-10.187-99.506 33.429-124.576l-0.433 0.234c7.427-4.34 15.523-7.662 24.721-9.905v-242.93l-0.63-0.133c-8.474-2.116-16.48-5.415-23.399-9.478-43.612-25.333-58.5-80.964-33.429-124.58 25.074-43.612 80.704-58.5 124.58-33.429l0.431 0.234c7.365 4.331 14.073 9.66 19.971 15.837l210.24-121.387c-2.4-8.174-3.687-16.828-3.687-25.788 0-50.404 40.74-91.15 91.147-91.15s91.147 41.006 91.147 91.15v-0.006c0 0.037 0 0.073 0 0.11 0 10.237-1.685 20.080-4.605 28.624l209.094 120.588c6.335-7.086 13.769-13.169 22.465-18.213 43.616-25.070 99.506-10.183 124.58 33.429 25.333 43.616 10.446 99.246-33.429 124.58l0.433-0.234c-7.352 4.295-15.358 7.593-24.462 9.841v242.933l0.627 0.131c8.571 2.112 16.666 5.434 23.661 9.54 43.616 25.333 58.503 80.96 33.429 124.576-25.333 43.616-80.964 58.503-124.576 33.429l-0.431-0.234c-7.482-4.399-14.286-9.829-20.256-16.136l-210.297 121.422zM520.538 805.387l210.798-121.707c-2.228-7.5-3.51-16.117-3.51-25.034 0-16.743 4.521-32.43 12.408-45.907l-0.233 0.43c12.832-22.322 33.735-37.12 56.935-42.887v-243.236c-1.184-0.288-2.361-0.604-3.531-0.939l-275.317 476.843c0.832 0.796 1.65 1.607 2.45 2.432zM392.1 802.898l-275.314-476.836c-0.543 0.188-1.745 0.518-2.957 0.824l-0.634 0.136v243.26c23.2 5.767 44.103 20.565 56.935 42.887 7.656 13.048 12.177 28.736 12.177 45.481 0 8.965-1.296 17.626-3.711 25.808l0.163-0.644 210.738 121.671c0.85-0.878 1.717-1.742 2.603-2.585zM480.534 781.298l275.25-476.729c-6.184-5.908-11.507-12.64-15.814-20.037l-0.232-0.432c-4.062-6.919-7.359-14.925-9.474-23.399l-0.133-0.629h-550.123c-2.251 9.104-5.551 17.11-9.848 24.461l0.234-0.433c-4.554 7.775-9.866 14.466-15.987 20.319l-0.034 0.033 275.303 476.825c7.578-2.266 16.286-3.57 25.299-3.57 0.032 0 0.064 0 0.096 0h-0.005c8.843 0 17.387 1.252 25.468 3.591zM522.472 89.82l-0.064 0.072c-16.623 18.231-40.567 29.671-67.183 29.671-0.056 0-0.112 0-0.159 0h0.009c-0.059 0-0.118 0-0.178 0-25.718 0-48.94-10.683-65.499-27.883l-210.453 121.511c0.338 1.17 0.654 2.343 0.946 3.527h550.329l0.135-0.635c0.51-2.026 1.088-4.026 1.546-5.346l-209.429-120.917z" />
<glyph unicode="&#xe92d;" d="M149.333 85.333v725.333c0 47.125 38.208 85.333 85.333 85.333h554.667c47.125 0 85.333-38.080 85.333-85.205 0-171.051 0-554.475 0-725.547 0-47.147-38.208-85.248-85.333-85.248h-554.667c-47.125 0-85.333 38.208-85.333 85.333z" />
<glyph unicode="&#xe92e;" d="M603.563 123.285v355.84c0 0 23.147 85.141-285.099-34.837-0.555-1.515-0.555 329.045-0.555 329.045l100.715 0.619v-211.797c0 0 281.984 111.061 281.984-84.224v-354.624l-97.045-0.021zM660.949 645.76h-106.816c38.443 47.019 73.259 127.573 73.259 127.573h110.464c-0.021-0.021-18.923-52.501-76.907-127.573v0 0zM319.723 123.904v202.624l101.333-101.333-101.333-101.291z" />
<glyph unicode="&#xe92f;" horiz-adv-x="725" d="M65.988 18.248l-66.021 740.513h725.468l-66.093-740.396-297.086-82.364z" />
<glyph unicode="&#xe930;" horiz-adv-x="725" d="M362.701-1.044l240.057 66.557 56.484 632.699h-296.542z" />
<glyph unicode="&#xe931;" horiz-adv-x="725" d="M362.701 423.566h-120.177l-8.302 93.002h128.479v90.822h-227.738l2.176-24.366 22.321-250.277h203.24zM362.701 187.696l-0.399-0.109-101.147 27.314-6.467 72.431h-91.168l12.725-142.602 186.040-51.645 0.415 0.117z" />
<glyph unicode="&#xe932;" horiz-adv-x="725" d="M67.465 960h46.153v-45.599h42.219v45.599h46.155v-138.086h-46.155v46.239h-42.219v-46.239h-46.15l-0.003 138.086zM262.688 914.206h-40.63v45.794h127.44v-45.794h-40.649v-92.293h-46.16v92.293h-0.002zM369.721 960h48.128l29.604-48.521 29.576 48.521h48.145v-138.086h-45.972v68.445l-31.754-49.098h-0.793l-31.776 49.098v-68.445h-45.16v138.086zM548.14 960h46.166v-92.444h64.91v-45.642h-111.076v138.086z" />
<glyph unicode="&#xe933;" horiz-adv-x="725" d="M362.388 423.566v-90.819h111.838l-10.544-117.79-101.293-27.337v-94.487l186.188 51.597 1.362 15.349 21.345 239.098 2.216 24.389h-24.471zM362.388 607.389v-90.822h219.377l1.819 20.415 4.138 46.041 2.173 24.366z" />
<glyph unicode="&#xe934;" d="M0 960h1024v-1024h-1024z" />
<glyph unicode="&#xe935;" d="M940.192 180.222c-7.495 46.722-37.962 85.95-128.195 122.549-31.343 14.406-66.287 24.723-76.703 48.475-3.699 13.822-4.186 21.609-1.849 29.98 6.716 27.157 39.13 35.626 64.827 27.839 16.548-5.548 32.219-18.301 41.661-38.643 44.192 28.617 44.094 28.423 74.951 48.084-11.291 17.521-17.326 25.601-24.724 33.095-26.573 29.688-62.783 44.97-120.7 43.802-10.026-1.265-20.148-2.627-30.175-3.894-28.909-7.3-56.456-22.485-72.614-42.829-48.475-54.996-34.652-151.263 24.335-190.881 58.111-43.608 143.477-53.536 154.379-94.321 10.61-49.935-36.696-66.092-83.711-60.35-34.652 7.203-53.925 24.821-74.756 56.846-38.35-22.193-38.35-22.193-77.772-44.873 9.344-20.441 19.175-29.688 34.847-47.404 74.172-75.243 259.795-71.544 293.086 42.342 1.362 3.895 10.318 29.981 3.114 70.182zM556.678 489.369h-95.781c0-82.738-0.388-164.891-0.388-247.629 0-52.66 2.725-100.94-5.84-115.735-14.017-29.103-50.324-25.503-66.871-19.856-16.84 8.274-25.405 20.052-35.334 36.696-2.725 4.77-4.77 8.468-5.452 8.76-25.988-15.866-51.881-31.829-77.871-47.696 12.947-26.573 32.024-49.643 56.456-64.632 36.502-21.901 85.56-28.617 136.859-16.84 33.387 9.734 62.198 29.882 77.286 60.544 21.804 40.201 17.132 88.87 16.937 142.698 0.487 87.799 0 175.598 0 263.69z" />
<glyph unicode="&#xe936;" d="M471.255 826.869l22.192-41.681c4.989-7.692 10.394-14.5 16.761-20.841 18.295-18.073 35.347-37.283 51.089-57.562l0.987-1.321c37.601-49.373 62.964-104.203 81.076-163.502 10.862-36.224 16.761-73.384 17.203-110.959 1.819-112.336-36.692-208.796-114.337-288.962-12.358-12.437-25.68-23.879-39.858-34.22l-0.94-0.653c-7.692 0-11.33 5.899-14.5 11.33-5.487 9.399-9.464 20.386-11.264 32.092l-0.066 0.521c-2.729 13.591-4.522 27.181-3.638 41.213v6.341c-0.624 1.351-7.406 625.010-4.703 628.206z" />
<glyph unicode="&#xe937;" d="M471.255 828.246c-0.91 1.819-1.819 0.442-2.729-0.442 0.442-9.095-2.729-17.203-7.692-24.946-5.457-7.692-12.681-13.591-19.931-19.931-40.278-34.873-71.981-76.996-97.369-124.108-33.781-63.405-51.192-131.358-56.129-202.897-2.261-25.804 8.16-116.858 16.293-143.13 22.192-69.746 62.054-128.188 113.688-178.912 12.681-12.213 26.246-23.543 40.278-34.431 4.080 0 4.522 3.638 5.457 6.341 1.591 4.896 3.011 10.855 3.987 16.962l0.093 0.708 9.095 67.927z" />
<glyph unicode="&#xe938;" d="M493.447 79.57c0.91 10.394 5.899 19.022 11.33 27.623-5.457 2.261-9.511 6.756-12.681 11.772-2.502 4.252-4.784 9.187-6.578 14.352l-0.178 0.59c-6.341 19.022-7.692 38.979-9.511 58.416v11.772c-2.261-1.819-2.729-17.203-2.729-19.489-1.49-22.708-4.391-43.649-8.675-64.082l0.515 2.937c-1.351-8.16-2.261-16.293-7.276-23.543 0-0.91 0-1.819 0.442-3.17 8.16-24.011 10.394-48.463 11.772-73.384v-9.095c0-10.862-0.442-8.575 8.575-12.213 3.638-1.351 7.692-1.819 11.33-4.522 2.729 0 3.17 2.261 3.17 4.080l-1.351 14.942v41.681c-0.442 7.276 0.91 14.5 1.819 21.308z" />
<glyph unicode="&#xe939;" glyph-name="nodejs" horiz-adv-x="930" d="M423.152 947c25.28 14.47 58.208 14.536 83.467 0 127.074-71.803 254.188-143.494 381.24-215.341 23.897-13.461 39.882-40.056 39.638-67.591v-431.997c0.178-28.676-17.386-55.906-42.598-69.062-126.656-71.408-253.248-142.902-379.882-214.31-25.803-14.754-59.392-13.617-84.389 2.346-37.972 22.012-76.008 43.916-113.984 65.906-7.76 4.626-16.507 8.308-21.987 15.832 4.844 6.529 13.504 7.342 20.542 10.193 15.85 5.040 30.408 13.13 44.969 20.981 3.682 2.52 8.177 1.554 11.707-0.701 32.47-18.617 64.654-37.775 97.233-56.215 6.95-4.012 13.987 1.314 19.928 4.626 124.289 70.246 248.73 140.226 372.997 210.494 4.604 2.215 7.15 7.103 6.776 12.146 0.087 142.507 0.022 285.039 0.044 427.545 0.527 5.723-2.785 10.984-7.96 13.327-126.217 71.081-252.369 142.271-378.564 213.37-2.082 1.448-4.665 2.314-7.449 2.314-2.771 0-5.341-0.857-7.461-2.32l0.044 0.029c-126.195-71.121-252.325-142.376-378.521-213.453-5.156-2.346-8.617-7.52-8.003-13.265 0.022-142.507 0-285.039 0-427.567-0.030-0.321-0.048-0.694-0.048-1.071 0-4.795 2.792-8.938 6.838-10.892l0.072-0.031c33.676-19.097 67.395-38.059 101.093-57.090 18.984-10.218 42.293-16.29 63.208-8.461 18.457 6.62 31.395 25.455 31.043 45.052 0.174 141.675-0.087 283.372 0.131 425.025-0.461 6.289 5.505 11.486 11.62 10.894 16.181 0.109 32.383 0.218 48.564-0.044 6.754 0.153 11.402-6.62 10.567-12.956-0.065-142.572 0.174-285.148-0.109-427.72 0.044-37.997-15.567-79.342-50.713-97.934-43.298-22.43-96.815-17.673-139.591 3.835-37.031 18.483-72.37 40.295-108.744 60.096-25.277 13.083-42.754 40.423-42.576 69.076v432.001c-0.265 28.106 16.355 55.183 40.996 68.448 126.635 71.466 253.248 142.986 379.86 214.484zM533.627 647.753c55.231 3.555 114.358 2.106 164.058-25.103 38.48-20.85 59.813-64.61 60.492-107.36-1.075-5.766-7.103-8.947-12.608-8.551-16.025 0.022-32.053-0.218-48.077 0.109-6.798-0.261-10.748 6.006-11.602 12.016-4.604 20.455-15.759 40.713-35.012 50.579-29.554 14.797-63.822 14.053-96.049 13.744-23.527-1.249-48.825-3.286-68.757-17.121-15.302-10.48-19.95-31.635-14.489-48.673 5.149-12.234 19.271-16.181 30.825-19.819 66.56-17.408 137.093-15.676 202.382-38.585 27.031-9.339 53.473-27.495 62.725-55.797 12.103-37.932 6.798-83.271-20.19-113.722-21.885-25.059-53.76-38.698-85.551-46.105-42.293-9.43-86.183-9.67-129.133-5.483-40.386 4.604-82.414 15.215-113.591 42.732-26.66 23.149-39.682 59.218-38.389 94.030 0.309 5.879 6.162 9.979 11.794 9.496 16.137 0.131 32.274 0.174 48.411-0.022 6.445 0.461 11.224-5.109 11.554-11.184 2.978-19.489 10.302-39.943 27.296-51.498 32.797-21.159 73.95-19.71 111.503-20.302 31.112 1.38 66.037 1.797 91.426 22.361 13.396 11.729 17.364 31.352 13.744 48.233-3.922 14.252-18.831 20.894-31.635 25.237-65.707 20.785-137.027 13.243-202.098 36.748-26.417 9.336-51.963 26.987-62.112 54.127-14.162 38.411-7.673 85.922 22.143 115.345 29.071 29.268 71.037 40.539 110.937 44.573z" />
<glyph unicode="&#xe93a;" horiz-adv-x="993" d="M989.072 346.818c-5.954 18.032-21.551 30.592-41.72 33.606-9.511 1.42-20.402 0.815-33.292-1.842-22.466-4.635-39.133-6.4-51.297-6.741 45.913 77.518 83.247 165.915 104.739 249.127 34.754 134.551 16.182 195.848-5.52 223.573-57.433 73.387-141.227 112.811-242.316 114.017-53.927 0.659-101.267-9.988-125.964-17.645-22.993 4.057-47.717 6.322-73.658 6.741-48.628 0.776-91.594-9.825-128.306-31.612-20.325 6.873-52.945 16.562-90.616 22.745-88.599 14.545-160.008 3.212-212.24-33.687-63.248-44.676-92.567-122.298-87.145-230.71 1.722-34.42 20.976-139.148 51.293-238.468 17.424-57.088 36.003-104.495 55.222-140.916 27.256-51.646 56.421-82.060 89.162-92.982 18.351-6.113 51.693-10.395 86.761 18.812 4.445-5.384 10.376-10.733 18.246-15.701 9.996-6.303 22.218-11.454 34.424-14.507 43.989-10.996 85.194-8.246 120.347 7.168 0.217-6.253 0.384-12.226 0.524-17.385 0.233-8.367 0.465-16.57 0.772-24.242 2.083-51.875 5.613-92.21 16.070-120.432 0.574-1.552 1.346-3.918 2.16-6.427 5.217-15.973 13.94-42.713 36.135-63.655 22.982-21.694 50.781-28.346 76.241-28.346 12.769 0 24.952 1.676 35.638 3.964 38.090 8.165 81.35 20.6 112.644 65.16 29.587 42.124 43.97 105.569 46.573 205.537 0.337 2.828 0.648 5.527 0.946 8.099l0.621 5.283 6.97-0.613 1.796-0.12c38.796-1.769 86.233 6.458 115.367 19.991 23.021 10.682 96.791 49.629 79.422 102.21z" />
<glyph unicode="&#xe93b;" horiz-adv-x="993" d="M922.737 336.593c-115.355-23.796-123.287 15.259-123.287 15.259 121.794 180.724 172.711 410.128 128.776 466.273-119.87 153.154-327.366 80.721-330.83 78.844l-1.113-0.202c-22.792 4.732-48.295 7.548-76.963 8.017-52.193 0.853-91.788-13.684-121.833-36.468 0 0-370.153 152.491-352.935-191.783 3.662-73.239 104.976-554.174 225.815-408.91 44.168 53.12 86.846 98.032 86.846 98.032 21.194-14.080 46.569-21.264 73.169-18.684l2.067 1.753c-0.644-6.594-0.349-13.044 0.826-20.682-31.131-34.781-21.981-40.886-84.212-53.698-62.972-12.978-25.98-36.080-1.827-42.124 29.281-7.319 97.020-17.691 142.79 46.383l-1.823-7.312c12.195-9.771 20.759-63.546 19.324-112.299-1.435-48.749-2.393-82.219 7.215-108.362 9.616-26.143 19.192-84.965 101.004-67.437 68.356 14.65 103.781 52.612 108.711 115.937 3.495 45.017 11.411 38.361 11.908 78.611l6.35 19.053c7.319 61.025 1.164 80.714 43.276 71.556l10.24-0.9c30.992-1.408 71.564 4.988 95.376 16.054 51.27 23.792 81.68 63.523 31.123 53.085h0.008z" />
<glyph unicode="&#xe93c;" horiz-adv-x="993" d="M419.154 643.782c-10.395 1.447-19.809 0.109-24.572-3.499-2.676-2.029-3.506-4.379-3.731-5.997-0.597-4.286 2.405-9.026 4.251-11.47 5.221-6.92 12.847-11.675 20.395-12.722 1.094-0.155 2.184-0.225 3.266-0.225 12.587 0 24.033 9.802 25.041 17.036 1.261 9.061-11.892 15.1-24.65 16.873zM763.529 643.495c-0.993 7.102-13.63 9.127-25.623 7.459-11.978-1.668-23.591-7.075-22.621-14.192 0.776-5.535 10.771-14.984 22.602-14.984 1.001 0 2.009 0.066 3.025 0.209 7.897 1.094 13.692 6.109 16.446 8.999 4.189 4.406 6.617 9.317 6.171 12.509z" />
<glyph unicode="&#xe93d;" horiz-adv-x="993" d="M961.122 339.297c-4.399 13.3-18.556 17.579-42.077 12.722-69.838-14.414-94.848-4.43-103.059 1.617 54.284 82.696 98.94 182.66 123.031 275.925 11.411 44.179 17.714 85.209 18.23 118.652 0.57 36.705-5.682 63.678-18.576 80.155-51.984 66.424-128.279 102.055-220.633 103.032-63.492 0.714-117.136-15.535-127.535-20.104-21.9 5.446-45.774 8.789-71.765 9.216-47.663 0.772-88.863-10.64-122.973-33.901-14.817 5.516-53.108 18.661-99.937 26.205-80.958 13.033-145.292 3.157-191.201-29.366-54.78-38.811-80.070-108.187-75.171-206.196 1.648-32.974 20.437-134.412 50.087-231.556 39.028-127.86 81.455-200.242 126.092-215.133 5.225-1.742 11.248-2.96 17.893-2.96 16.283 0 36.247 7.339 57.018 32.31 27.47 32.87 53.149 61.824 79.616 90.031l-1.027-1.106c17.548-9.418 36.825-14.677 56.541-15.205 0.039-0.516 0.089-1.032 0.136-1.544-2.766-3.264-6.029-7.272-9.225-11.335l-0.743-0.98c-13.661-17.342-16.504-20.953-60.478-30.006-12.509-2.583-45.731-9.429-46.22-32.718-0.528-25.445 39.273-36.131 43.807-37.264 15.802-3.956 31.026-5.907 45.545-5.907 35.309 0 66.382 11.605 91.214 34.060-0.764-90.709 3.018-180.092 13.909-207.325 8.921-22.295 30.712-76.781 99.545-76.777 10.1 0 21.217 1.175 33.447 3.797 71.839 15.399 103.036 47.151 115.103 117.151 6.458 37.411 17.54 126.743 22.753 174.662 11-3.433 25.162-5.004 40.471-5 31.93 0 68.775 6.784 91.881 17.509 25.957 12.055 72.797 41.635 64.303 67.336zM790.044 663.098c-0.237-14.146-2.184-26.989-4.247-40.394-2.223-14.417-4.519-29.324-5.097-47.418-0.57-17.61 1.629-35.918 3.755-53.624 4.298-35.762 8.708-72.58-8.363-108.909-2.457 4.234-4.991 9.345-7.215 14.619l-0.348 0.931c-2.122 5.143-6.73 13.405-13.11 24.84-24.82 44.513-82.944 148.752-53.19 191.286 8.863 12.66 31.356 25.678 87.816 18.669zM721.607 902.757c82.75-1.827 148.208-32.784 194.552-92.005 35.545-45.424-3.596-252.113-116.907-430.425-2.179 2.8-3.304 4.21-4.436 5.615l0.999-1.283-1.435 1.792c29.281 48.357 23.556 96.202 18.459 138.62-2.095 17.408-4.073 33.85-3.568 49.296 0.52 16.368 2.684 30.41 4.779 43.985 2.572 16.729 5.19 34.040 4.468 54.447 0.539 2.141 0.756 4.67 0.473 7.672-1.842 19.568-24.184 78.134-69.721 131.142-24.91 28.994-61.234 61.44-110.832 83.324 21.333 4.422 50.506 8.545 83.169 7.82zM258.565 278.194c-22.885-27.516-38.687-22.241-43.885-20.511-33.862 11.295-73.154 82.866-107.795 196.36-29.975 98.203-47.492 196.953-48.88 224.644-4.375 87.575 16.853 148.608 63.1 181.407 75.264 53.372 199.005 21.426 248.727 5.225-0.714-0.706-1.458-1.365-2.164-2.083-81.594-82.401-79.659-223.185-79.457-231.792-0.008-3.32 0.272-8.021 0.652-14.487 1.404-23.68 4.018-67.751-2.963-117.659-6.485-46.379 7.812-91.772 39.218-124.544 3.197-3.325 6.506-6.452 9.961-9.414l0.19-0.159c-13.979-14.972-44.362-48.081-76.703-86.986zM345.756 394.531c-25.313 26.415-36.81 63.154-31.546 100.81 7.37 52.72 4.651 98.638 3.188 123.307-0.206 3.452-0.388 6.478-0.493 8.863 11.92 10.57 67.157 40.165 106.55 31.139 17.974-4.115 28.928-16.357 33.482-37.411 23.568-109.006 3.119-154.438-13.312-190.949-3.386-7.521-6.586-14.631-9.317-21.985l-2.118-5.686c-5.36-14.375-10.349-27.741-13.44-40.432-26.911 0.078-53.089 11.574-72.995 32.349zM349.887 247.525c-7.858 1.963-14.926 5.372-19.072 8.2 3.464 1.629 9.627 3.848 20.317 6.051 51.731 10.647 59.722 18.164 77.168 40.316 3.999 5.081 8.533 10.837 14.813 17.85l0.008 0.008c9.352 10.473 13.63 8.696 21.388 5.477 6.288-2.599 12.412-10.48 14.895-19.153 1.175-4.096 2.494-11.869-1.823-17.92-36.445-51.029-89.553-50.374-127.694-40.828zM620.622-4.41c-63.286-13.56-85.694 18.731-100.461 55.645-9.53 23.831-14.216 131.297-10.892 249.976 0.043 1.579-0.182 3.103-0.617 4.538-0.447 3.22-1.065 6.056-1.876 8.81l0.107-0.424c-4.942 17.268-16.985 31.713-31.434 37.702-5.741 2.378-16.275 6.741-28.936 3.503 2.7 11.124 7.381 23.688 12.459 37.291l2.129 5.721c2.397 6.45 5.407 13.134 8.588 20.208 17.195 38.198 40.743 90.519 15.185 208.718-9.573 44.272-41.542 65.893-90.003 60.87-29.052-3.006-55.633-14.728-68.891-21.45-2.851-1.443-5.457-2.839-7.893-4.197 3.7 44.606 17.68 127.969 69.973 180.713 32.927 33.202 76.777 49.602 130.203 48.718 105.27-1.722 172.777-55.746 210.874-100.767 32.83-38.792 50.607-77.871 57.701-98.948-53.353 5.426-89.639-5.104-108.032-31.403-40.017-57.204 21.892-168.231 51.646-221.591 5.457-9.778 10.166-18.23 11.648-21.822 9.689-23.482 22.233-39.16 31.391-50.603 2.808-3.506 5.531-6.908 7.602-9.879-16.159-4.658-45.184-15.422-42.539-69.225-2.133-26.996-17.303-153.391-25.010-198.047-10.174-58.996-31.884-80.97-92.924-94.061zM884.783 297.887c-16.524-7.668-44.176-13.421-70.443-14.658-29.013-1.358-43.784 3.25-47.259 6.086-1.629 33.528 10.849 37.031 24.056 40.739 2.075 0.582 4.1 1.152 6.055 1.835 1.214-0.989 2.544-1.97 4.003-2.932 23.319-15.391 64.912-17.051 123.632-4.93l0.644 0.128c-7.92-7.405-21.473-17.342-40.688-26.267z" />
<glyph unicode="&#xe93e;" glyph-name="python" d="M507.664 957.712c-259.328 0-243.136-112.46-243.136-112.46l0.288-116.512h247.472v-34.98h-345.764s-165.944 18.82-165.944-242.84c0-261.668 144.84-252.388 144.84-252.388h86.44v121.424s-4.66 144.84 142.528 144.84h245.448s137.9-2.228 137.9 133.276v224.048s20.944 135.592-250.072 135.592zM371.208 879.36c0.012 0 0.026 0 0.040 0 24.566 0 44.48-19.914 44.48-44.48 0-0.014 0-0.028 0-0.042v0.002c0-0.012 0-0.026 0-0.040 0-24.566-19.914-44.48-44.48-44.48-0.014 0-0.028 0-0.042 0h0.002c-0.012 0-0.026 0-0.040 0-24.566 0-44.48 19.914-44.48 44.48 0 0.014 0 0.028 0 0.042v-0.002c0 0.012 0 0.026 0 0.040 0 24.566 19.914 44.48 44.48 44.48 0.014 0 0.028 0 0.042 0h-0.002zM515.028-58.504c259.328 0 243.136 112.46 243.136 112.46l-0.288 116.508h-247.476v34.98h345.764s165.944-18.82 165.944 242.848c0 261.664-144.84 252.384-144.84 252.384h-86.44v-121.42s4.66-144.84-142.528-144.84h-245.448s-137.9 2.228-137.9-133.28v-224.052s-20.94-135.588 250.072-135.588zM651.484 19.84c-0.012 0-0.026 0-0.040 0-24.566 0-44.48 19.914-44.48 44.48 0 0.014 0 0.028 0 0.042v-0.002c0 0.013 0 0.029 0 0.044 0 24.566 19.914 44.48 44.48 44.48 0.014 0 0.028 0 0.042 0h-0.002c0.012 0 0.026 0 0.040 0 24.566 0 44.48-19.914 44.48-44.48 0-0.014 0-0.028 0-0.042v0.002c0-0.012 0-0.026 0-0.040 0-24.566-19.914-44.48-44.48-44.48-0.014 0-0.028 0-0.042 0h0.002z" />
<glyph unicode="&#xe93f;" d="M983.88 212.228c-54.648-28.484-337.736-144.88-398.004-176.3-60.268-31.424-93.748-31.12-141.36-8.36-47.608 22.76-348.864 144.448-403.132 170.388-27.12 12.96-41.384 23.904-41.384 34.24v103.504s392.2 85.38 455.516 108.096c63.312 22.716 85.28 23.536 139.16 3.8 53.888-19.744 376.072-77.872 429.324-97.376l-0.024-102.040c0.008-10.232-12.28-21.456-40.096-35.952z" />
<glyph unicode="&#xe940;" d="M983.86 315.12c-54.644-28.472-337.724-144.872-397.992-176.288-60.264-31.428-93.744-31.12-141.352-8.36-47.612 22.744-348.856 144.452-403.12 170.376-54.264 25.94-55.4 43.792-2.096 64.664 53.304 20.88 352.896 138.42 416.22 161.136 63.312 22.708 85.276 23.536 139.156 3.792 53.884-19.736 335.276-131.74 388.52-151.24 53.264-19.524 55.308-35.6 0.664-64.080z" />
<glyph unicode="&#xe941;" d="M983.88 379.704c-54.648-28.488-337.736-144.88-398.004-176.312-60.268-31.412-93.748-31.108-141.36-8.348-47.612 22.748-348.864 144.448-403.132 170.388-27.12 12.96-41.384 23.888-41.384 34.228v103.516s392.2 85.376 455.516 108.092c63.312 22.716 85.28 23.54 139.16 3.8 53.892-19.74 376.076-77.856 429.324-97.364l-0.024-102.052c0.008-10.228-12.28-21.452-40.096-35.948z" />
<glyph unicode="&#xe942;" d="M983.86 482.596c-54.644-28.48-337.724-144.872-397.992-176.3-60.264-31.416-93.744-31.108-141.352-8.348-47.612 22.744-348.856 144.448-403.12 170.376-54.264 25.932-55.4 43.788-2.096 64.668 53.304 20.868 352.9 138.416 416.22 161.128 63.312 22.712 85.276 23.536 139.156 3.796 53.884-19.736 335.276-131.732 388.52-151.24 53.264-19.52 55.308-35.6 0.664-64.080z" />
<glyph unicode="&#xe943;" d="M983.88 553.388c-54.648-28.48-337.736-144.88-398.004-176.312-60.268-31.416-93.748-31.108-141.36-8.348-47.612 22.748-348.864 144.452-403.132 170.38-27.12 12.972-41.384 23.904-41.384 34.232v103.52s392.2 85.372 455.516 108.084c63.312 22.72 85.28 23.536 139.16 3.8 53.892-19.74 376.076-77.856 429.324-97.364l-0.024-102.048c0.008-10.22-12.28-21.444-40.096-35.944z" />
<glyph unicode="&#xe944;" d="M983.86 656.28c-54.644-28.48-337.724-144.88-397.992-176.296-60.264-31.416-93.744-31.108-141.352-8.36-47.608 22.76-348.856 144.456-403.116 170.388-54.268 25.928-55.4 43.788-2.1 64.664 53.304 20.872 352.9 138.404 416.22 161.124 63.312 22.716 85.276 23.532 139.156 3.792 53.884-19.74 335.276-131.736 388.52-151.244 53.264-19.504 55.308-35.588 0.664-64.068z" />
<glyph unicode="&#xe945;" d="M637.132 756.972l-88.040-9.14-19.708-47.424-31.832 52.92-101.66 9.136 75.856 27.356-22.76 41.992 71.020-27.776 66.952 21.92-18.096-43.42 68.268-25.564zM524.128 526.9l-164.308 68.148 235.44 36.14-71.132-104.288zM296.328 730.612c69.5 0 125.84-21.84 125.84-48.776 0-26.944-56.34-48.78-125.84-48.78s-125.84 21.84-125.84 48.78c0 26.936 56.34 48.776 125.84 48.776z" />
<glyph unicode="&#xe946;" d="M741.18 744.008l139.344-55.064-139.224-55.012-0.12 110.080z" />
<glyph unicode="&#xe947;" d="M587.020 683.028l154.16 60.98 0.12-110.076-15.116-5.912-139.164 55.008z" />
<glyph unicode="&#xe948;" glyph-name="redux" d="M709.524 257.068c37.788 3.912 66.456 36.488 65.152 75.584-1.3 39.092-33.88 70.368-72.972 70.368h-2.604c-40.4-1.304-71.672-35.184-70.368-75.58 1.304-19.548 9.12-36.488 20.848-48.216-44.304-87.312-112.064-151.164-213.704-204.592-69.064-36.488-140.732-49.52-212.4-40.4-58.64 7.82-104.248 33.88-132.92 76.888-41.696 63.852-45.604 132.92-10.42 201.984 24.76 49.52 63.848 86.008 88.608 104.252-5.212 16.94-13.032 45.608-16.94 66.456-188.948-136.828-169.4-321.872-112.064-409.18 43-65.16 130.308-105.556 226.736-105.556 26.060 0 52.12 2.608 78.184 9.12 166.796 32.58 293.196 131.62 364.864 278.872zM938.868 418.656c-99.036 115.98-244.98 179.832-411.776 179.832h-20.848c-11.728 23.456-36.488 39.096-63.852 39.096h-2.608c-40.392-1.304-71.664-35.184-70.364-75.584 1.304-39.092 33.88-70.368 72.972-70.368h2.604c28.668 1.304 53.428 19.548 63.852 44.308h23.456c99.036 0 192.856-28.668 277.56-84.704 65.152-43.004 112.064-99.040 138.124-166.8 22.152-54.732 20.848-108.16-2.608-153.772-36.484-69.064-97.728-106.856-178.52-106.856-52.124 0-101.64 15.64-127.704 27.368-14.332-13.032-40.396-33.88-58.64-46.916 56.036-26.060 113.372-40.396 168.1-40.396 125.096 0 217.616 69.068 252.8 138.132 37.788 75.584 35.18 205.896-62.548 316.66zM276.9 234.92c1.304-39.096 33.88-70.368 72.972-70.368h2.608c40.396 1.3 71.668 35.184 70.364 75.58-1.3 39.096-33.88 70.368-72.972 70.368h-2.604c-2.608 0-6.52 0-9.12-1.3-53.428 88.612-75.58 185.040-67.76 289.292 5.208 78.188 31.272 145.952 76.88 201.988 37.788 48.216 110.76 71.672 160.28 72.972 138.124 2.608 196.76-169.404 200.672-238.472 16.94-3.908 45.608-13.032 65.156-19.548-15.64 211.104-145.948 320.568-271.040 320.568-117.28 0-225.436-84.704-268.44-209.804-59.94-166.8-20.848-327.084 52.124-453.488-6.512-9.12-10.424-23.456-9.12-37.792z" />
<glyph unicode="&#xe949;" glyph-name="sass" d="M881.2 390.8c-35.8-0.202-66.8-8.8-92.8-21.602-9.6 19-19.2 35.602-20.798 48-1.8 14.4-4 23.202-1.8 40.4 2.198 17.202 12.198 41.602 12.198 43.602-0.202 1.8-2.202 10.6-22.8 10.8s-38.4-4-40.4-9.4-6-17.8-8.6-30.6c-3.6-18.8-41.2-85.4-62.6-120.4-7 13.6-13 25.6-14.202 35.202-1.798 14.398-4 23.2-1.798 40.398 2.2 17.202 12.2 41.6 12.2 43.6-0.2 1.8-2.2 10.6-22.798 10.8-20.602 0.2-38.4-4-40.4-9.4s-4.2-18.2-8.6-30.6c-4.202-12.4-54.202-123.6-67.202-152.6-6.6-14.8-12.398-26.6-16.6-34.6-4.2-8-0.2-0.6-0.6-1.4-3.6-6.8-5.6-10.6-5.6-10.6v-0.202c-2.8-5-5.8-9.798-7.202-9.798-1 0-3 13.4 0.4 31.798 7.4 38.602 25.4 98.8 25.202 101 0 1 3.398 11.602-11.602 17-14.6 5.4-19.798-3.6-21-3.6-1.2 0-2.2-3.2-2.2-3.2s16.2 67.798-31 67.798c-29.6 0-70.4-32.2-90.6-61.6-12.8-7-40-21.798-68.8-37.6-11-6-22.4-12.4-33.2-18.2l-2.198 2.404c-57.2 61-163 104.2-158.6 186.2 1.6 29.8 12 108.4 203.202 203.6 156.6 78 282 56.6 303.798 9 31-68-67-194.4-229.798-212.6-62-7-94.602 17-102.8 26-8.6 9.4-9.8 9.8-13 8-5.2-2.8-2-11.2 0-16.2 4.8-12.6 24.8-35 58.8-46.2 29.798-9.8 102.6-15.2 190.6 18.8 98.6 38.2 175.6 144.2 153 232.8-23 90.2-172.6 119.8-314 69.6-84.202-30-175.402-76.8-241.002-138.2-78-72.8-90.4-136.4-85.2-162.8 18.202-94.2 148-155.6 200-201-2.6-1.398-5-2.798-7.2-4-26-12.798-125-64.6-149.8-119.398-28-62 4.4-106.602 26-112.602 66.8-18.6 135.2 14.8 172.2 69.8 36.798 55 32.4 126.4 15.4 159l-0.602 1.2 20.4 12c13.202 7.8 26.202 15 37.6 21.202-6.398-17.4-11-38-13.398-68-2.8-35.202 11.6-80.8 30.6-98.8 8.4-7.798 18.4-8 24.6-8 22 0 32 18.202 43 40 13.6 26.6 25.6 57.4 25.6 57.4s-15-83.4 26-83.4c15 0 30 19.4 36.8 29.4v-0.2s0.4 0.6 1.2 2c0.669 0.965 1.462 2.204 2.217 3.468l0.183 0.33v0.4c6 10.4 19.4 34.2 39.4 73.6 25.798 50.8 50.6 114.4 50.6 114.4s2.4-15.6 9.8-41.2c4.398-15.202 13.998-31.8 21.398-48-6-8.4-9.6-13.202-9.6-13.202l0.2-0.2c-4.798-6.4-10.2-13.202-15.798-20-20.4-24.4-44.8-52.202-48-60.202-3.8-9.398-3-16.398 4.4-22 5.4-4 15-4.798 25.2-4 18.4 1.202 31.2 5.8 37.6 8.602 10 3.6 21.4 9 32.4 17 20 14.798 32.2 35.798 31 63.798-0.6 15.4-5.6 30.6-11.8 45 1.8 2.6 3.602 5.202 5.4 8 31.6 46.202 56 97 56 97s2.4-15.6 9.8-41.2c3.798-13 11.4-27.202 18.2-41.202-29.6-24.2-48.2-52.2-54.6-70.6-11.8-34-2.6-49.4 14.8-53 7.798-1.6 19 2 27.398 5.6 10.4 3.4 23 9.202 34.602 17.8 20 14.8 39.2 35.4 38.2 63.2-0.6 12.8-4 25.4-8.6 37.4 25.2 10.4 57.798 16.4 99.2 11.4 89-10.4 106.6-66 103.202-89.2-3.4-23.202-22-36-28.202-40-6.2-3.8-8.2-5.202-7.6-8 0.8-4.202 3.6-4 9-3.202 7.4 1.202 46.8 19 48.4 61.798 2.4 55.008-49.8 115.008-142.4 114.41zM194.8 159.4c-29.4-32.2-70.8-44.4-88.4-34-19 11-11.602 58.4 24.6 92.6 22 20.8 50.6 40 69.4 51.8 4.2 2.6 10.6 6.398 18.2 11 1.2 0.798 2 1.2 2 1.2 1.4 0.8 3 1.8 4.6 2.8 13.4-48.8 0.6-91.6-30.4-125.4zM409.8 305.6c-10.2-25-31.8-89.2-44.8-85.6-11.202 3-18 51.6-2.202 99.6 8 24.202 25 53 35 64.202 16.202 18 33.8 24 38.202 16.6 5.2-9.602-19.8-79.202-26.2-94.802zM587.2 220.8c-4.4-2.202-8.4-3.8-10.2-2.602-1.4 0.8 1.798 3.8 1.798 3.8s22.2 23.8 31 34.8c5 6.398 11 13.798 17.4 22.2v-2.4c0.002-28.798-27.598-47.998-39.998-55.798zM723.998 252c-3.2 2.4-2.798 9.8 8 33 4.202 9.2 13.8 24.6 30.4 39.2 2-6 3.202-11.798 3-17.2-0.198-36-25.798-49.4-41.4-55z" />
<glyph unicode="&#xe94a;" d="M0 448v512h1024v-1024h-1024z" />
<glyph unicode="&#xe94b;" d="M224.512 446.208v-41.728h133.12v-378.88h94.464v378.88h133.12v40.96c0 23.040 0 41.728-1.024 42.24 0 0.768-81.152 1.024-179.712 1.024l-179.2-0.768v-41.984l-0.768 0.256zM822.784 488.96c26.112-6.144 46.080-17.92 64-36.608 9.472-10.24 23.552-28.16 24.576-32.768 0-1.536-44.288-31.488-71.168-48.128-1.024-0.768-5.12 3.584-9.216 10.24-13.312 18.944-26.88 27.136-48.128 28.672-30.72 2.048-51.2-14.080-51.2-40.96 0-8.192 1.536-12.8 4.608-19.456 6.912-14.080 19.712-22.528 59.392-39.936 73.216-31.488 104.96-52.224 124.16-81.92 21.76-33.28 26.624-85.504 12.032-124.672-16.384-42.752-56.32-71.68-113.408-81.152-17.92-3.072-58.88-2.56-78.080 0.768-40.96 7.68-80.128 28.16-104.192 54.528-9.472 10.24-27.648 37.632-26.624 39.424l9.728 6.144 38.4 22.272 28.928 16.896 6.656-8.96c8.448-13.312 27.392-31.232 38.4-37.376 33.28-17.152 77.824-14.848 99.84 5.12 9.472 8.704 13.568 17.92 13.568 30.72 0 11.776-1.792 17.152-7.68 26.112-8.192 11.264-24.576 20.48-70.656 40.96-52.992 22.528-75.52 36.864-96.512 58.88-12.032 13.312-23.040 34.048-28.16 51.2-3.84 14.848-5.12 51.2-1.536 65.792 11.008 51.2 49.664 87.040 104.96 97.28 17.92 3.584 60.16 2.048 77.824-2.56l-0.512-0.512z" />
</font>
</defs>
</svg>
