<svg width="0" height="0" class="hidden">
  <symbol xmlns="http://www.w3.org/2000/svg" viewBox="0 0 48 48" id="digitalocean">
    <path fill="#03A9F4" d="M40 20c.391-1.735-.092-3.78-2.5-6-3.914 3.543-2.795 7.227-1.5 9 0 0-.166 1-4 1H2S.167 40 18 40c15.593 0 19.973-12.003 20.828-15.076.354.048.751.079 1.172.076 2.147-.017 4.93-1.171 6-5.484-2.838-.983-4.661-.538-6 .484z"></path>
    <path fill="#0288D1" d="M2.165 28C2.9 32.739 5.983 40 18 40c12.185 0 17.523-7.33 19.682-12H2.165z"></path>
    <path fill="#81D4FA" d="M19.812 39.938c-.92-.322-5.072-1.09-5.812-6.938-4.209 1.863-7.938 1.375-9.579 1.008C6.583 37.237 10.591 40 18 40c.623 0 1.224-.024 1.812-.062z"></path>
    <path fill="#FFF" d="M18 30a2 2 0 100 4 2 2 0 100-4z"></path>
    <path fill="#37474F" d="M14.914 33.597c.224.505.02 1.162-.51 1.318-3.301.973-6.146 1.102-8.297 1.102a12.174 12.174 0 01-1.656-1.963c2.585 0 6.71-.12 9.144-.966.522-.182 1.095.002 1.319.509zM2 27s1.875.125 3-1c1.875 1.688 5.94 1.088 7 0 1.063 1.688 6.938 1.375 8 0 1.25 1.438 6.625 1.75 8 0 .479 1.461 6.819 1.874 8 0 1.061 1.088 5.063 1.938 7.311 0C43.875 27.188 46 27 46 27v1H2m15 4a1 1 0 102 0 1 1 0 00-2 0z"></path>
    <path fill="#01579B" d="M11 24H6v-5h5v5zm10-5h-5v5h5v-5zm10 0h-5v5h5v-5zm-15-5h-5v5h5v-5zm10 0h-5v5h5v-5z"></path>
    <path fill="#0288D1" d="M16 24h-5v-5h5v5zm10-5h-5v5h5v-5zm0-10h-5v5h5V9zm-5 5h-5v5h5v-5z"></path>
  </symbol>
  <symbol xmlns="http://www.w3.org/2000/svg" preserveAspectRatio="xMidYMid" viewBox="0 0 256 244" id="docker">
    <path d="M177.381 169.733c9.447-.978 16.614-9.122 16.288-18.896-.325-9.773-8.47-17.592-18.243-17.592h-.651c-10.1.326-17.918 8.796-17.592 18.895.326 4.887 2.28 9.122 5.212 12.054-11.076 21.828-28.016 37.791-53.426 51.148-17.266 9.122-35.183 12.38-53.1 10.1-14.66-1.955-26.062-8.47-33.23-19.222-10.424-15.963-11.401-33.23-2.605-50.496 6.19-12.38 15.962-21.502 22.152-26.063-1.303-4.235-3.258-11.402-4.235-16.614-47.237 34.207-42.35 80.468-28.016 102.295 10.75 16.29 32.577 26.389 56.684 26.389 6.515 0 13.03-.652 19.546-2.28 41.699-8.145 73.299-32.905 91.216-69.718zm57.336-40.397c-24.759-28.995-61.245-44.958-102.944-44.958h-5.212c-2.932-5.864-9.122-9.774-15.963-9.774h-.652C99.848 74.93 92.03 83.4 92.355 93.5c.326 9.773 8.47 17.592 18.243 17.592h.651c7.167-.326 13.357-4.887 15.963-11.077h5.864c24.759 0 48.214 7.167 69.39 21.176 16.288 10.751 28.016 24.76 34.531 41.7 5.538 13.683 5.212 27.04-.652 38.443-9.121 17.266-24.432 26.714-44.63 26.714-13.031 0-25.41-3.91-31.926-6.842-3.583 3.258-10.099 8.47-14.66 11.729 14.009 6.515 28.343 10.099 42.025 10.099 31.274 0 54.404-17.267 63.2-34.533 9.447-18.896 8.795-51.474-15.637-79.165zM69.225 175.27c.326 9.774 8.47 17.592 18.243 17.592h.652c10.099-.325 17.917-8.796 17.591-18.895-.325-9.774-8.47-17.592-18.243-17.592h-.651c-.652 0-1.63 0-2.28.325-13.357-22.153-18.895-46.26-16.94-72.323 1.302-19.547 7.818-36.488 19.22-50.497 9.447-12.054 27.69-17.918 40.07-18.243 34.531-.652 49.19 42.351 50.168 59.618 4.235.977 11.402 3.258 16.289 4.887C189.434 27.366 156.857 0 125.584 0c-29.32 0-56.359 21.176-67.11 52.451-14.985 41.7-5.212 81.771 13.031 113.372-1.628 2.28-2.606 5.864-2.28 9.448z" fill="#764ABC"></path>
  </symbol>
  <symbol xmlns="http://www.w3.org/2000/svg" viewBox="0 -3.954 53.927 53.954" id="firebase">
    <g fill="#0080ff" fill-rule="evenodd">
      <path d="M24.915 50v-9.661c10.226 0 18.164-10.141 14.237-20.904a14.438 14.438 0 00-8.615-8.616C19.774 6.921 9.633 14.83 9.633 25.056H0C0 8.758 15.763-3.954 32.853 1.384 40.311 3.73 46.271 9.661 48.588 17.12 53.927 34.237 41.243 50 24.915 50"></path>
      <path d="M15.339 40.367h9.604v-9.604H15.34zm-7.401 7.401h7.4v-7.4h-7.4zm-6.187-7.4h6.187V34.18H1.751z"></path>
    </g>
  </symbol>
  <symbol xmlns="http://www.w3.org/2000/svg" xmlns:xlink="http://www.w3.org/1999/xlink" preserveAspectRatio="xMidYMid" viewBox="0 0 256 351" id="git">
    <defs>
      <filter x="-50%" y="-50%" width="200%" height="200%" filterUnits="objectBoundingBox" id="b">
        <feGaussianBlur stdDeviation="17.5" in="SourceAlpha" result="shadowBlurInner1"></feGaussianBlur>
        <feOffset in="shadowBlurInner1" result="shadowOffsetInner1"></feOffset>
        <feComposite in="shadowOffsetInner1" in2="SourceAlpha" operator="arithmetic" k2="-1" k3="1" result="shadowInnerInner1"></feComposite>
        <feColorMatrix values="0 0 0 0 0 0 0 0 0 0 0 0 0 0 0 0 0 0 0.06 0" in="shadowInnerInner1"></feColorMatrix>
      </filter>
      <filter x="-50%" y="-50%" width="200%" height="200%" filterUnits="objectBoundingBox" id="d">
        <feGaussianBlur stdDeviation="3.5" in="SourceAlpha" result="shadowBlurInner1"></feGaussianBlur>
        <feOffset dx="1" dy="-9" in="shadowBlurInner1" result="shadowOffsetInner1"></feOffset>
        <feComposite in="shadowOffsetInner1" in2="SourceAlpha" operator="arithmetic" k2="-1" k3="1" result="shadowInnerInner1"></feComposite>
        <feColorMatrix values="0 0 0 0 0 0 0 0 0 0 0 0 0 0 0 0 0 0 0.09 0" in="shadowInnerInner1"></feColorMatrix>
      </filter>
      <path d="M1.253 280.732l1.605-3.131 99.353-188.518-44.15-83.475C54.392-1.283 45.074.474 43.87 8.188L1.253 280.732z" id="a"></path>
      <path d="M134.417 148.974l32.039-32.812-32.039-61.007c-3.042-5.791-10.433-6.398-13.443-.59l-17.705 34.109-.53 1.744 31.678 58.556z" id="c"></path>
    </defs>
    <path d="M0 282.998l2.123-2.972L102.527 89.512l.212-2.017L58.48 4.358C54.77-2.606 44.33-.845 43.114 6.951L0 282.998z" fill="#FFC24A"></path>
    <use fill="#FFA712" fill-rule="evenodd" xlink:href="#a"></use>
    <use filter="url(#b)" xlink:href="#a"></use>
    <path d="M135.005 150.38l32.955-33.75-32.965-62.93c-3.129-5.957-11.866-5.975-14.962 0L102.42 87.287v2.86l32.584 60.233z" fill="#F4BD62"></path>
    <use fill="#FFA50E" fill-rule="evenodd" xlink:href="#c"></use>
    <use filter="url(#d)" xlink:href="#c"></use>
    <path fill="#F6820C" d="M0 282.998l.962-.968 3.496-1.42 128.477-128 1.628-4.431-32.05-61.074z"></path>
    <path d="M139.121 347.551l116.275-64.847-33.204-204.495c-1.039-6.398-8.888-8.927-13.468-4.34L0 282.998l115.608 64.548a24.126 24.126 0 0023.513.005" fill="#FDE068"></path>
    <path d="M254.354 282.16L221.402 79.218c-1.03-6.35-7.558-8.977-12.103-4.424L1.29 282.6l114.339 63.908a23.943 23.943 0 0023.334.006l115.392-64.355z" fill="#FCCA3F"></path>
    <path d="M139.12 345.64a24.126 24.126 0 01-23.512-.005L.931 282.015l-.93.983 115.607 64.548a24.126 24.126 0 0023.513.005l116.275-64.847-.285-1.752-115.99 64.689z" fill="#EEAB37"></path>
  </symbol>
  <symbol xmlns="http://www.w3.org/2000/svg" viewBox="0 0 512 384" id="github">
    <path fill="#CF649A" d="M440.6 220.6c-17.9.101-33.4 4.4-46.4 10.801-4.8-9.5-9.6-17.801-10.399-24-.9-7.2-2-11.601-.9-20.2C384 178.6 389 166.4 389 165.4c-.101-.9-1.101-5.3-11.4-5.4s-19.2 2-20.2 4.7-3 8.9-4.3 15.3c-1.8 9.4-20.6 42.7-31.3 60.2-3.5-6.8-6.5-12.8-7.101-17.601-.899-7.199-2-11.6-.899-20.199 1.1-8.601 6.1-20.8 6.1-21.8-.1-.9-1.1-5.3-11.399-5.4-10.301-.1-19.2 2-20.2 4.7s-2.1 9.1-4.3 15.3C281.9 201.4 256.9 257 250.4 271.5c-3.3 7.4-6.199 13.3-8.3 17.3-2.1 4-.1.3-.3.7-1.8 3.4-2.8 5.3-2.8 5.3v.101c-1.4 2.5-2.9 4.899-3.601 4.899-.5 0-1.5-6.7.2-15.899 3.7-19.301 12.7-49.4 12.601-50.5 0-.5 1.699-5.801-5.801-8.5-7.3-2.7-9.899 1.8-10.5 1.8-.6 0-1.1 1.6-1.1 1.6s8.1-33.899-15.5-33.899c-14.8 0-35.2 16.1-45.3 30.8-6.4 3.5-20 10.899-34.4 18.8-5.5 3-11.2 6.2-16.6 9.1L117.9 251.9c-28.6-30.5-81.5-52.1-79.3-93.1.8-14.9 6-54.2 101.601-101.8 78.3-39 141-28.3 151.899-4.5 15.5 34-33.5 97.2-114.899 106.3-31 3.5-47.301-8.5-51.4-13-4.3-4.7-4.9-4.9-6.5-4-2.6 1.4-1 5.6 0 8.1 2.4 6.3 12.4 17.5 29.4 23.1 14.899 4.9 51.3 7.6 95.3-9.4 49.3-19.1 87.8-72.1 76.5-116.4-11.5-45.1-86.3-59.9-157-34.8C121.4 27.4 75.8 50.8 43 81.5 4 117.9-2.2 149.7.4 162.9c9.101 47.1 74 77.8 100 100.5-1.3.699-2.5 1.399-3.6 2-13 6.399-62.5 32.3-74.9 59.699-14 31 2.2 53.301 13 56.301 33.4 9.3 67.6-7.4 86.1-34.9 18.399-27.5 16.2-63.2 7.7-79.5l-.301-.6 10.2-6c6.601-3.9 13.101-7.5 18.8-10.601-3.199 8.7-5.5 19-6.699 34-1.4 17.601 5.8 40.4 15.3 49.4 4.2 3.899 9.2 4 12.3 4 11 0 16-9.101 21.5-20 6.8-13.3 12.8-28.7 12.8-28.7s-7.5 41.7 13 41.7c7.5 0 15-9.7 18.4-14.7v.1s.2-.3.6-1a36.13 36.13 0 001.2-1.899v-.2c3-5.2 9.7-17.1 19.7-36.8 12.899-25.4 25.3-57.2 25.3-57.2s1.2 7.8 4.9 20.6c2.199 7.601 6.999 15.9 10.699 24-3 4.2-4.8 6.601-4.8 6.601l.1.1c-2.399 3.2-5.1 6.601-7.899 10-10.2 12.2-22.4 26.101-24 30.101-1.9 4.699-1.5 8.199 2.2 11 2.7 2 7.5 2.399 12.6 2 9.2-.601 15.6-2.9 18.8-4.301 5-1.8 10.7-4.5 16.2-8.5 10-7.399 16.1-17.899 15.5-31.899-.3-7.7-2.8-15.3-5.9-22.5.9-1.3 1.801-2.601 2.7-4 15.8-23.101 28-48.5 28-48.5s1.2 7.8 4.9 20.6c1.899 6.5 5.7 13.601 9.1 20.601-14.8 12.1-24.1 26.1-27.3 35.3-5.9 17-1.3 24.7 7.4 26.5 3.899.8 9.5-1 13.699-2.8 5.2-1.7 11.5-4.601 17.301-8.9 10-7.4 19.6-17.7 19.1-31.6-.3-6.4-2-12.7-4.3-18.7 12.6-5.2 28.899-8.2 49.6-5.7 44.5 5.2 53.3 33 51.601 44.6-1.7 11.601-11 18-14.101 20-3.1 1.9-4.1 2.601-3.8 4 .4 2.101 1.8 2 4.5 1.601 3.7-.601 23.4-9.5 24.2-30.899 1.2-27.504-24.9-57.504-71.2-57.205zM97.4 336.3c-14.7 16.1-35.4 22.2-44.2 17-9.5-5.5-5.801-29.2 12.3-46.3 11-10.4 25.3-20 34.7-25.9 2.1-1.3 5.3-3.199 9.1-5.5.6-.399 1-.6 1-.6.7-.4 1.5-.9 2.3-1.4 6.7 24.4.3 45.8-15.2 62.7zm107.5-73.1c-5.1 12.5-15.9 44.6-22.4 42.8-5.601-1.5-9-25.8-1.101-49.8 4-12.101 12.5-26.5 17.5-32.101 8.101-9 16.9-12 19.101-8.3 2.6 4.801-9.9 39.601-13.1 47.401zm88.7 42.4c-2.2 1.101-4.2 1.9-5.1 1.301-.7-.4.899-1.9.899-1.9s11.1-11.9 15.5-17.4c2.5-3.199 5.5-6.899 8.7-11.1v1.2C313.6 292.1 299.8 301.7 293.6 305.6zm68.399-15.6c-1.6-1.2-1.399-4.9 4-16.5 2.101-4.6 6.9-12.3 15.2-19.6 1 3 1.601 5.899 1.5 8.6-.099 18-12.899 24.7-20.7 27.5z"></path>
  </symbol>
  <symbol xmlns="http://www.w3.org/2000/svg" preserveAspectRatio="xMinYMin meet" viewBox="0 0 256 256" id="gitlab2">
    <path d="M251.172 116.594L139.4 4.828c-6.433-6.437-16.873-6.437-23.314 0l-23.21 23.21 29.443 29.443c6.842-2.312 14.688-.761 20.142 4.693 5.48 5.489 7.02 13.402 4.652 20.266l28.375 28.376c6.865-2.365 14.786-.835 20.269 4.657 7.663 7.66 7.663 20.075 0 27.74-7.665 7.666-20.08 7.666-27.749 0-5.764-5.77-7.188-14.235-4.27-21.336l-26.462-26.462-.003 69.637a19.82 19.82 0 015.188 3.71c7.663 7.66 7.663 20.076 0 27.747-7.665 7.662-20.086 7.662-27.74 0-7.663-7.671-7.663-20.086 0-27.746a19.654 19.654 0 016.421-4.281V94.196a19.378 19.378 0 01-6.421-4.281c-5.806-5.798-7.202-14.317-4.227-21.446L81.47 39.442 4.83 116.077c-6.44 6.443-6.44 16.884 0 23.322l111.774 111.768c6.435 6.438 16.873 6.438 23.316 0l111.251-111.249c6.438-6.44 6.438-16.887 0-23.324" fill="#DE4C36"></path>
  </symbol>
  <symbol xmlns="http://www.w3.org/2000/svg" preserveAspectRatio="xMinYMin meet" viewBox="0 0 256 259" id="gitlab">
    <g fill="#343434">
      <circle cx="126.157" cy="129.008" r="30.593"></circle>
      <path d="M1.204 96.572c0 .368-.369 1.105-.369 1.474 0 3.317 2.58 6.266 6.266 6.266h51.972c2.58 0 4.423-1.474 5.529-3.686 10.69-23.59 34.28-39.44 61.186-39.44 37.228 0 67.453 30.225 67.453 67.453s-30.225 67.453-67.453 67.453c-27.276 0-50.497-16.218-61.186-39.071-1.106-2.58-2.949-4.055-5.53-4.055H7.103c-3.318 0-6.267 2.58-6.267 6.267 0 .368 0 1.105.369 1.474 14.375 56.026 64.872 97.309 124.953 97.309 71.139 0 129.008-57.87 129.008-129.008C255.165 57.869 197.295 0 126.157 0 66.077 0 15.579 41.283 1.204 96.572z"></path>
    </g>
  </symbol>
  <symbol xmlns="http://www.w3.org/2000/svg" preserveAspectRatio="xMinYMin meet" viewBox="0 0 256 256" id="graphql">
    <path d="M0 222.991C0 241.223 14.779 256 33.009 256H222.99c18.233 0 33.01-14.779 33.01-33.009V33.01C256 14.777 241.221 0 222.991 0H33.01C14.777 0 0 14.779 0 33.009V222.99z" fill="#563D7C"></path>
    <path d="M106.158 113.238V76.985h31.911c3.04 0 5.97.253 8.792.76 2.822.506 5.319 1.41 7.49 2.713 2.17 1.303 3.907 3.112 5.21 5.427 1.302 2.316 1.954 5.283 1.954 8.9 0 6.513-1.954 11.217-5.862 14.111-3.907 2.895-8.9 4.342-14.979 4.342h-34.516zM72.075 50.5v155h75.112c6.947 0 13.713-.868 20.298-2.605 6.585-1.737 12.446-4.414 17.584-8.032 5.137-3.618 9.226-8.286 12.265-14.002 3.04-5.717 4.559-12.483 4.559-20.298 0-9.697-2.352-17.982-7.055-24.856-4.704-6.875-11.832-11.687-21.384-14.437 6.947-3.328 12.194-7.598 15.74-12.808 3.545-5.21 5.318-11.722 5.318-19.538 0-7.236-1.194-13.314-3.582-18.235-2.388-4.92-5.753-8.864-10.095-11.831-4.341-2.967-9.551-5.102-15.63-6.404-6.078-1.303-12.808-1.954-20.189-1.954H72.075zm34.083 128.515v-42.549h37.121c7.381 0 13.315 1.7 17.802 5.102 4.486 3.401 6.73 9.081 6.73 17.041 0 4.053-.688 7.381-2.063 9.986-1.375 2.605-3.22 4.668-5.536 6.187-2.315 1.52-4.993 2.605-8.032 3.257-3.04.65-6.223.976-9.552.976h-36.47z" fill="#FFF"></path>
  </symbol>
  <symbol xmlns="http://www.w3.org/2000/svg" preserveAspectRatio="xMinYMin meet" viewBox="0 0 256 236" id="heroku">
    <path d="M128.075 236.075l47.104-144.97H80.97l47.104 144.97z" fill="#E24329"></path>
    <path d="M128.075 236.074L80.97 91.104H14.956l113.119 144.97z" fill="#FC6D26"></path>
    <path d="M14.956 91.104L.642 135.16a9.752 9.752 0 003.542 10.903l123.891 90.012-113.12-144.97z" fill="#FCA326"></path>
    <path d="M14.956 91.105H80.97L52.601 3.79c-1.46-4.493-7.816-4.492-9.275 0l-28.37 87.315z" fill="#E24329"></path>
    <path d="M128.075 236.074l47.104-144.97h66.015l-113.12 144.97z" fill="#FC6D26"></path>
    <path d="M241.194 91.104l14.314 44.056a9.752 9.752 0 01-3.543 10.903l-123.89 90.012 113.119-144.97z" fill="#FCA326"></path>
    <path d="M241.194 91.105h-66.015l28.37-87.315c1.46-4.493 7.816-4.492 9.275 0l28.37 87.315z" fill="#E24329"></path>
  </symbol>
  <symbol xmlns="http://www.w3.org/2000/svg" preserveAspectRatio="xMinYMin meet" viewBox="0 0 256 249" id="html5">
    <g fill="#161614">
      <path d="M127.505 0C57.095 0 0 57.085 0 127.505c0 56.336 36.534 104.13 87.196 120.99 6.372 1.18 8.712-2.766 8.712-6.134 0-3.04-.119-13.085-.173-23.739-35.473 7.713-42.958-15.044-42.958-15.044-5.8-14.738-14.157-18.656-14.157-18.656-11.568-7.914.872-7.752.872-7.752 12.804.9 19.546 13.14 19.546 13.14 11.372 19.493 29.828 13.857 37.104 10.6 1.144-8.242 4.449-13.866 8.095-17.05-28.32-3.225-58.092-14.158-58.092-63.014 0-13.92 4.981-25.295 13.138-34.224-1.324-3.212-5.688-16.18 1.235-33.743 0 0 10.707-3.427 35.073 13.07 10.17-2.826 21.078-4.242 31.914-4.29 10.836.048 21.752 1.464 31.942 4.29 24.337-16.497 35.029-13.07 35.029-13.07 6.94 17.563 2.574 30.531 1.25 33.743 8.175 8.929 13.122 20.303 13.122 34.224 0 48.972-29.828 59.756-58.22 62.912 4.573 3.957 8.648 11.717 8.648 23.612 0 17.06-.148 30.791-.148 34.991 0 3.393 2.295 7.369 8.759 6.117 50.634-16.879 87.122-64.656 87.122-120.973C255.009 57.085 197.922 0 127.505 0"></path>
      <path d="M47.755 181.634c-.28.633-1.278.823-2.185.389-.925-.416-1.445-1.28-1.145-1.916.275-.652 1.273-.834 2.196-.396.927.415 1.455 1.287 1.134 1.923m6.272 5.596c-.608.564-1.797.302-2.604-.589-.834-.889-.99-2.077-.373-2.65.627-.563 1.78-.3 2.616.59.834.899.996 2.08.36 2.65m4.304 7.159c-.782.543-2.06.034-2.849-1.1-.781-1.133-.781-2.493.017-3.038.792-.545 2.05-.055 2.85 1.07.78 1.153.78 2.513-.019 3.069m7.277 8.292c-.699.77-2.187.564-3.277-.488-1.114-1.028-1.425-2.487-.724-3.258.707-.772 2.204-.555 3.302.488 1.107 1.026 1.445 2.496.7 3.258m9.403 2.8c-.307.998-1.741 1.452-3.185 1.028-1.442-.437-2.386-1.607-2.095-2.616.3-1.005 1.74-1.478 3.195-1.024 1.44.435 2.386 1.596 2.086 2.612m10.703 1.187c.036 1.052-1.189 1.924-2.705 1.943-1.525.033-2.758-.818-2.774-1.852 0-1.062 1.197-1.926 2.721-1.951 1.516-.03 2.758.815 2.758 1.86m10.514-.403c.182 1.026-.872 2.08-2.377 2.36-1.48.27-2.85-.363-3.039-1.38-.184-1.052.89-2.105 2.367-2.378 1.508-.262 2.857.355 3.049 1.398"></path>
    </g>
  </symbol>
  <symbol xmlns="http://www.w3.org/2000/svg" viewBox="0 0 2385.7 1919.9" id="javascript">
    <path d="M1513.8 528.7h72.8L1794 321.3l10.2-88c-385.9-340.6-975-303.9-1315.6 82C393.9 422.5 325.2 550 287.8 688c23.1-9.5 48.7-11 72.8-4.4l414.7-68.4s21.1-34.9 32-32.7c184.5-202.6 495-226.2 708-53.8h-1.5z" fill="#ea4335"></path>
    <path d="M2089.4 688c-47.7-175.5-145.5-333.3-281.6-454l-291 291c122.9 100.4 192.9 251.7 189.9 410.4v51.7c143.1 0 259 116 259 259 0 143.1-116 259-259 259h-518.1l-51.7 52.4v310.7l51.7 51.7h518.1c297 2.3 560.5-190.2 648.7-473.8 88-283.7-20-591.7-266-758.1z" fill="#4285f4"></path>
    <path d="M669.8 1917h518.1v-414.7H669.8c-36.9 0-73.4-7.9-107-23.3l-72.8 22.5-208.8 207.4-18.2 72.8c117.1 88.4 260 135.9 406.8 135.3z" fill="#34a853"></path>
    <path d="M669.8 571.6c-287.8 1.7-542.7 186-634.5 458.7-91.8 272.7-.3 573.7 227.8 749.1l300.5-300.5c-130.4-58.9-188.3-212.3-129.4-342.7 58.9-130.4 212.3-188.3 342.7-129.4 57.4 26 103.4 72 129.4 129.4l300.5-300.5c-127.9-167.1-326.6-264.8-537-264.1z" fill="#fbbc05"></path>
  </symbol>
  <symbol xmlns="http://www.w3.org/2000/svg" viewBox="0 0 1771 2499.8" id="mongodb">
    <path d="M1387.8 92.5h-146.9l152.8 165.9v78.9h-314.8v-92.4h152.8L1078.9 79V0h309zm-371.4 0H869.3l153 165.9v78.9H707.4v-92.4h152.8L707.4 79V0h309zm-367.8 3.8H490.1v144.8h158.5v96.3H377.3V0h271.3z" fill="#131313"></path>
    <path d="M161.2 2299.1L0 491.4h1771l-161.4 1807.4-725.2 201z" fill="#1572b6"></path>
    <path d="M885.5 2346.2l586-162.5 137.8-1544.5H885.5z" fill="#33a9dc"></path>
    <path d="M885.5 1294.1h293.4l20.2-227H885.5V845.5h556l-5.3 59.5-54.5 611H885.5z" fill="#fff"></path>
    <path d="M886.7 1869.9h-1l-246.9-66.7-15.8-176.8H400.6l31.1 348.1 454.2 126.4h1.3v-231z" fill="#ebebeb"></path>
    <path d="M1160.1 1506.3l-26.7 296.7-247.3 66.7v231l454.5-126 3.3-37.5 38.6-431h-222.4z" fill="#fff"></path>
    <path d="M886.3 845.5v221.7H350.9l-4.6-49.8L336.2 905l-5.3-59.5zm-.8 448.6v221.7H641.4l-4.3-49.8-10.1-112.4-5.3-59.5h263.7z" fill="#ebebeb"></path>
  </symbol>
</svg>