<svg height="512" viewBox="0 0 512 512" width="512" xmlns="http://www.w3.org/2000/svg"><g id="Outline"><path d="m201.054 324.031 13.892 7.938a28.856 28.856 0 0 1 50.108 0l13.892-7.938a44.856 44.856 0 0 0 -77.892 0z"/><path d="m99.969 398.946-7.938-13.892a44.856 44.856 0 0 0 0 77.892l7.938-13.892a28.856 28.856 0 0 1 0-50.108z"/><path d="m456 16h-248a40.045 40.045 0 0 0 -40 40v188.675a64.607 64.607 0 0 0 -28.55 22.811 56 56 0 0 0 -75.156 46.751 56.005 56.005 0 0 0 -30.732 85.055 55.991 55.991 0 0 0 38.438 96.708h240a55.957 55.957 0 0 0 38.435-96.7 56.012 56.012 0 0 0 2.064-59.306l-13.848 8.016a39.989 39.989 0 0 1 -5.24 47.086 8 8 0 0 0 1.316 12 40.623 40.623 0 0 1 12.561 14.057 40.014 40.014 0 0 1 -35.288 58.847h-72.537l-1.235-1.646a31.287 31.287 0 0 1 2.892-40.7l-11.314-11.314a47.418 47.418 0 0 0 -9.174 53.66h-28.632a40 40 0 0 1 0-80h64.716a44.281 44.281 0 0 0 21.884 30.946l7.937-13.892a28.856 28.856 0 0 1 0-50.108l-7.937-13.892a44.281 44.281 0 0 0 -21.884 30.946h-57.248a59.4 59.4 0 0 0 -32.512-45.466l-3.378-1.689-7.156 14.31 3.379 1.69a43.479 43.479 0 0 1 23.567 31.822 55.961 55.961 0 0 0 -30.507 95.333h-80.861a39.995 39.995 0 0 1 -22.732-72.9 8 8 0 0 0 1.321-12 39.994 39.994 0 0 1 14.48-64.213 56.117 56.117 0 0 0 36.265 41.931l5.332-15.086a40.068 40.068 0 0 1 -26.656-37.2c0-.069 0-.139 0-.209 0-.1-.012-.206-.012-.314a40.045 40.045 0 0 1 40-40 39.585 39.585 0 0 1 16.151 3.409l.7 1.972a27.877 27.877 0 0 1 -6.512 28.962l11.314 11.314a43.951 43.951 0 0 0 10.273-45.666l-.548-1.532a48.512 48.512 0 0 1 18.88-17.245 40.063 40.063 0 0 0 37.744 26.777h94.776l-6.7 46.868a8 8 0 0 0 12.215 7.881l86.039-54.749h61.67a40.045 40.045 0 0 0 40-40v-192a40.045 40.045 0 0 0 -40-40zm24 232a24.028 24.028 0 0 1 -24 24h-64a8 8 0 0 0 -4.3 1.251l-73.32 46.661 5.54-38.78a8 8 0 0 0 -7.92-9.132h-104a24.028 24.028 0 0 1 -24-24v-192a24.028 24.028 0 0 1 24-24h248a24.028 24.028 0 0 1 24 24z"/><path d="m440 64h-176v-16h-16v208h16v-16h128a8 8 0 0 0 8-8v-32a8 8 0 0 0 -8-8h-128v-16h88a8 8 0 0 0 8-8v-32a8 8 0 0 0 -8-8h-88v-16h176a8 8 0 0 0 8-8v-32a8 8 0 0 0 -8-8zm-56 144v16h-120v-16zm-40-64v16h-80v-16zm88-48h-168v-16h168z"/><path d="m200 64h32v16h-32z"/><path d="m200 96h32v16h-32z"/><path d="m200 128h32v16h-32z"/><path d="m200 160h32v16h-32z"/><path d="m200 192h32v16h-32z"/><path d="m200 224h32v16h-32z"/></g></svg>