<?xml version="1.0" encoding="iso-8859-1"?>
<!-- Generator: Adobe Illustrator 21.0.0, SVG Export Plug-In . SVG Version: 6.00 Build 0)  -->
<svg xmlns="http://www.w3.org/2000/svg" xmlns:xlink="http://www.w3.org/1999/xlink" version="1.1" id="Capa_1" x="0px" y="0px" viewBox="0 0 512 512" style="enable-background:new 0 0 512 512;" xml:space="preserve" width="512" height="512">
<g>
	<path d="M399.676,151.002C379.956,88.666,321.871,46,256,46c-78.074,0-142.459,59.482-149.875,135.343   C48.723,176.568,0,221.827,0,278.5C0,332.262,43.91,376,97.882,376h53.71v75c0,8.284,6.742,15,15.059,15h179.702   c8.317,0,15.059-6.716,15.059-15v-75h37.647C461.334,376,512,325.532,512,263.5C512,201.672,461.671,151.333,399.676,151.002z    M331.294,436H181.71V316h149.584V436z M399.059,346h-37.647v-45c0-8.284-6.742-15-15.059-15H211.827v-55   c0-24.262,19.816-44,44.173-44s44.173,19.738,44.173,44v10c0,8.284,6.742,15,15.059,15c8.317,0,15.059-6.716,15.059-15v-10   c0-40.804-33.326-74-74.29-74s-74.29,33.196-74.29,74v55h-15.059c-8.317,0-15.059,6.716-15.059,15v45h-53.71   c-37.366,0-67.765-30.28-67.765-67.5c0-44.673,43.035-77.158,86.275-64.949c7.495,2.116,19.136-1.254,19.136-17.551   c0-66.168,54.043-120,120.471-120c56.015,0,105.471,39.467,117.596,93.843c1.668,7.474,8.72,12.5,16.358,11.656   c49.015-5.407,91.928,32.978,91.928,82.001C481.882,308.99,444.727,346,399.059,346z"/>
	<path d="M256,346c-8.317,0-15.059,6.716-15.059,15v30c0,8.284,6.742,15,15.059,15c8.317,0,15.059-6.716,15.059-15v-30   C271.059,352.716,264.317,346,256,346z"/>
</g>















</svg>
