<?xml version="1.0" encoding="iso-8859-1"?>
<!-- Generator: Adobe Illustrator 21.0.0, SVG Export Plug-In . SVG Version: 6.00 Build 0)  -->
<svg xmlns="http://www.w3.org/2000/svg" xmlns:xlink="http://www.w3.org/1999/xlink" version="1.1" id="Capa_1" x="0px" y="0px" viewBox="0 0 512 512" style="enable-background:new 0 0 512 512;" xml:space="preserve" width="512" height="512">
<path d="M497,444.317h-54.707c-1.253-4.334-3.039-8.441-5.293-12.239v-77.922c21.941-6.486,38-26.823,38-50.839  c0-68.706,0.711-65.699-1.95-70.395l-21.309-37.605H486c8.284,0,15-6.716,15-15V29.445c5.822-2.061,10-7.6,10-14.128  c0-8.284-6.716-15-15-15h-91c-62.309,0-113,50.692-113,113v31H165c-29.055,0-55.389,11.864-74.418,31H65c-35.841,0-65,29.159-65,65  v133c0,8.284,6.716,15,15,15s15-6.716,15-15v-133c0-19.299,15.701-35,35-35h4.677c-11.985,25.862-9.677,41.681-9.677,96  c0,4.102,1.68,8.025,4.649,10.856l23.474,22.383l-0.033,3.694c-0.012,2.794-2.296,5.067-5.09,5.067c-8.293,0-15.019,6.739-15,15.035  l0.171,74.028c-2.003,3.421-3.64,7.082-4.834,10.938H15c-8.284,0-15,6.716-15,15s6.716,15,15,15h48.053  c6.31,21.916,26.529,38,50.447,38c23.555,0,43.535-15.594,50.163-37h178.223c6.539,21.601,26.528,37.366,50.114,37.366  s43.575-15.765,50.114-37.366H497c8.284,0,15-6.716,15-15S505.284,444.317,497,444.317z M307,174.317c8.284,0,15-6.716,15-15v-46  c0-45.766,37.233-83,83-83h66v135h-30v-24c0-8.284-6.716-15-15-15c-8.271,0-15-6.729-15-15c0-8.284-6.716-15-15-15s-15,6.716-15,15  c0,19.555,12.541,36.228,30,42.42c0,28.994-0.086,27.306,0.237,29.156c0.769,4.439,1.404,4.273,33.763,61.378v59.045  c0,12.682-10.318,23-23,23c-8.284,0-15,6.716-15,15v67.213c-9.738-2.933-20.144-2.969-30,0v-98.213c0-8.284-6.716-15-15-15  s-15,6.716-15,15v16H233.432c0.736-6.696,0.568-7.05,0.568-42c0-8.284-6.716-15-15-15s-15,6.716-15,15v32c0,33.635-27.364,61-61,61  c-8.284,0-15,6.716-15,15v16.053c-9.921-2.856-20.291-2.695-29.884,0.251l-0.089-38.695c11.795-5.621,20-17.631,20.063-31.475  c0.182-20.426,2.821-14.083-28.089-43.557v-45.577c0-41.355,33.645-75,75-75H307z M158,431.009v-24.928  c29.358-4.89,53.997-23.89,66.714-49.764H347v75.761c-2.254,3.798-4.04,7.905-5.293,12.239H163.947  C162.581,439.572,160.567,435.102,158,431.009z M113.5,481.317c-12.407,0-22.5-10.094-22.5-22.5s10.093-22.5,22.5-22.5  s22.5,10.094,22.5,22.5S125.907,481.317,113.5,481.317z M392,481.683c-11.428,0-20.877-8.73-22.211-19.955  c0.274-1.689,0.304-3.194-0.044-5.108c1.178-11.393,10.708-20.303,22.255-20.303s21.077,8.91,22.255,20.303  c-0.349,1.919-0.316,3.426-0.044,5.108C412.877,472.953,403.428,481.683,392,481.683z"/>















</svg>
